<svg width="23" height="26" viewBox="0 0 23 26" fill="none" xmlns="http://www.w3.org/2000/svg">
<path d="M11.5617 0.361755C14.915 0.361755 17.672 2.99684 17.8119 6.33578H17.7792C17.7831 6.43284 17.7645 6.52948 17.7247 6.61817H17.9201C19.4429 6.61817 21.0375 7.67363 21.6769 10.2216L21.7464 10.5223L22.7085 18.2735C23.4009 23.2174 20.696 25.2964 17.0063 25.3845L16.7589 25.3874H6.38585C2.63607 25.3874 -0.253435 24.021 0.381886 18.6099L0.425211 18.2735L1.39838 10.5223C1.87824 7.77833 3.48923 6.69605 5.04146 6.62225L5.21363 6.61817H5.31145C5.29495 6.52475 5.29495 6.42919 5.31145 6.33578C5.45138 2.99684 8.2083 0.361755 11.5617 0.361755ZM7.92301 10.784C7.31225 10.784 6.81714 11.2936 6.81714 11.9223C6.81714 12.5509 7.31225 13.0605 7.92301 13.0605C8.53376 13.0605 9.02888 12.5509 9.02888 11.9223L9.02026 11.7795C8.95202 11.2183 8.48678 10.784 7.92301 10.784ZM15.1665 10.784C14.5557 10.784 14.0606 11.2936 14.0606 11.9223C14.0606 12.5509 14.5557 13.0605 15.1665 13.0605C15.7772 13.0605 16.2723 12.5509 16.2723 11.9223C16.2723 11.2936 15.7772 10.784 15.1665 10.784ZM11.5126 1.99141C9.10502 1.99141 7.15327 3.93645 7.15327 6.33578C7.16977 6.42919 7.16977 6.52475 7.15327 6.61817H15.9265C15.8916 6.528 15.8732 6.43238 15.872 6.33578C15.872 3.93645 13.9202 1.99141 11.5126 1.99141Z" fill="#EFF2F4"/>
</svg>
