<svg width="83" height="49" viewBox="0 0 83 49" fill="none" xmlns="http://www.w3.org/2000/svg">
<path fill-rule="evenodd" clip-rule="evenodd" d="M78.1185 0L73.2363 0C70.5399 0 68.3541 2.05667 68.3541 4.5937V44.4058C68.3541 46.9428 70.5399 48.9995 73.2363 48.9995H78.1185C80.8149 48.9995 83.0007 46.9428 83.0007 44.4058V4.5937C83.0007 2.05667 80.8149 0 78.1185 0ZM50.4536 10.7182H55.3358C58.0322 10.7182 60.218 12.7748 60.218 15.3119V44.4053C60.218 46.9423 58.0322 48.999 55.3358 48.999H50.4536C47.7573 48.999 45.5714 46.9423 45.5714 44.4053V15.3119C45.5714 12.7748 47.7573 10.7182 50.4536 10.7182ZM32.5471 21.4378H27.6649C24.9685 21.4378 22.7827 23.4944 22.7827 26.0315V44.4063C22.7827 46.9433 24.9685 49 27.6649 49H32.5471C35.2434 49 37.4293 46.9433 37.4293 44.4063V26.0315C37.4293 23.4944 35.2434 21.4378 32.5471 21.4378ZM9.7644 30.625H4.8822C2.18583 30.625 0 32.6817 0 35.2187L0 44.4062C0 46.9432 2.18583 48.9999 4.8822 48.9999H9.7644C12.4608 48.9999 14.6466 46.9432 14.6466 44.4062V35.2187C14.6466 32.6817 12.4608 30.625 9.7644 30.625Z" fill="black"/>
</svg>
