<svg width="26" height="26" viewBox="0 0 26 26" fill="none" xmlns="http://www.w3.org/2000/svg">
<path d="M7.45056 14.6521C9.21487 14.6521 10.6288 16.0798 10.6288 17.8566V22.1222C10.6288 23.8865 9.21487 25.3255 7.45056 25.3255H3.22122C1.46943 25.3255 0.0429688 23.8865 0.0429688 22.1222V17.8566C0.0429688 16.0798 1.46943 14.6521 3.22122 14.6521H7.45056ZM21.8905 14.6521C23.6423 14.6521 25.0687 16.0798 25.0687 17.8566V22.1222C25.0687 23.8865 23.6423 25.3255 21.8905 25.3255H17.6611C15.8968 25.3255 14.4829 23.8865 14.4829 22.1222V17.8566C14.4829 16.0798 15.8968 14.6521 17.6611 14.6521H21.8905ZM7.45056 0.300232C9.21487 0.300232 10.6288 1.73921 10.6288 3.50477V7.77039C10.6288 9.54721 9.21487 10.9737 7.45056 10.9737H3.22122C1.46943 10.9737 0.0429688 9.54721 0.0429688 7.77039V3.50477C0.0429688 1.73921 1.46943 0.300232 3.22122 0.300232H7.45056ZM21.8905 0.300232C23.6423 0.300232 25.0687 1.73921 25.0687 3.50477V7.77039C25.0687 9.54721 23.6423 10.9737 21.8905 10.9737H17.6611C15.8968 10.9737 14.4829 9.54721 14.4829 7.77039V3.50477C14.4829 1.73921 15.8968 0.300232 17.6611 0.300232H21.8905Z" fill="#EFF2F4"/>
</svg>
