<svg width="140" height="140" viewBox="0 0 140 140" fill="none" xmlns="http://www.w3.org/2000/svg">
<g filter="url(#filter0_d_238_3307)">
<circle cx="67.9773" cy="63.9773" r="59.9773" fill="white"/>
</g>
<path d="M94.5153 63.7808C94.4047 63.2704 93.9555 62.9063 93.4318 62.9063H82.8182C85.7104 57.9735 87.8982 52.8242 87.8982 48.5189C87.8982 38.1444 78.9615 29.7046 67.9772 29.7046C56.9929 29.7046 48.0562 38.1444 48.0562 48.5189C48.0562 52.8242 50.2429 57.9735 53.1362 62.9063H42.5226C42.0003 62.9063 41.5497 63.2704 41.44 63.7808L34.7997 94.7691C34.73 95.0966 34.812 95.4376 35.021 95.6974C35.2315 95.9563 35.5482 96.108 35.8822 96.108H100.072C100.406 96.108 100.723 95.9563 100.932 95.6974C101.141 95.4385 101.224 95.0966 101.154 94.7691L94.5153 63.7808ZM67.9767 31.9186C77.7401 31.9186 85.6843 39.3657 85.6843 48.5194C85.6843 58.7047 71.5385 75.0276 67.9767 78.9764C64.4155 75.0273 50.2692 58.7051 50.2692 48.5194C50.2692 39.3657 58.2134 31.9186 67.9767 31.9186ZM37.2503 93.8951L43.4168 65.1203H54.4919C59.8586 73.5744 66.7024 80.8762 67.1731 81.3758C67.3811 81.5962 67.6721 81.7212 67.9764 81.7212C68.2808 81.7212 68.5718 81.5962 68.7808 81.3748C69.2521 80.8758 76.095 73.5734 81.4632 65.1193H92.5369L98.7034 93.8941H37.2506L37.2503 93.8951ZM76.2057 61.8001C76.8154 61.8001 77.3124 61.3055 77.3124 60.6934V48.2427L79.1874 49.6858C79.39 49.841 79.6256 49.9151 79.8603 49.9151C80.1933 49.9151 80.5209 49.7669 80.7393 49.4823C81.1123 48.9976 81.0214 48.3034 80.5367 47.9308L68.6502 38.788C68.254 38.4837 67.6996 38.4837 67.3009 38.788L55.416 47.9308C54.9313 48.3039 54.8404 48.999 55.2134 49.4823C55.5854 49.967 56.2816 50.0589 56.7648 49.6858L58.6408 48.2427V60.6934C58.6408 61.3055 59.1369 61.8001 59.7476 61.8001H76.2057ZM66.34 59.5866V52.465C66.34 51.5629 67.0737 50.8282 67.976 50.8282C68.4108 50.8282 68.8213 50.9987 69.1316 51.3085C69.4414 51.6173 69.6128 52.0278 69.6128 52.4651V59.5867L66.34 59.5866ZM60.8544 46.5412L67.976 41.063L75.099 46.5412V59.5866H71.8262V52.465C71.8262 51.4369 71.4255 50.4709 70.6963 49.7428C69.967 49.0155 69.0021 48.6148 67.9759 48.6148C65.8534 48.6148 64.1265 50.3425 64.1265 52.465V59.5866H60.8538L60.8544 46.5412Z" fill="black"/>
<defs>
<filter id="filter0_d_238_3307" x="0" y="0" width="139.954" height="139.955" filterUnits="userSpaceOnUse" color-interpolation-filters="sRGB">
<feFlood flood-opacity="0" result="BackgroundImageFix"/>
<feColorMatrix in="SourceAlpha" type="matrix" values="0 0 0 0 0 0 0 0 0 0 0 0 0 0 0 0 0 0 127 0" result="hardAlpha"/>
<feOffset dx="2" dy="6"/>
<feGaussianBlur stdDeviation="5"/>
<feComposite in2="hardAlpha" operator="out"/>
<feColorMatrix type="matrix" values="0 0 0 0 0 0 0 0 0 0 0 0 0 0 0 0 0 0 0.2 0"/>
<feBlend mode="normal" in2="BackgroundImageFix" result="effect1_dropShadow_238_3307"/>
<feBlend mode="normal" in="SourceGraphic" in2="effect1_dropShadow_238_3307" result="shape"/>
</filter>
</defs>
</svg>
