<svg width="70" height="70" viewBox="0 0 70 70" fill="none" xmlns="http://www.w3.org/2000/svg">
<path d="M69.046 0.928341C68.8396 0.722428 68.5344 0.651482 68.2581 0.745371L9.43939 20.8177C9.18973 20.9031 9.00142 21.1111 8.94167 21.3683C8.88193 21.6254 8.95928 21.8948 9.14546 22.0815L22.3358 35.2685L22.157 47.0414H22.1565C22.1533 47.2479 22.2339 47.4474 22.38 47.5936C22.5214 47.7472 22.7241 47.8293 22.9327 47.8176L34.7045 47.6394L47.8926 60.826C48.0356 60.9695 48.2303 61.0501 48.433 61.0501C48.4911 61.0506 48.5493 61.0437 48.6058 61.0304C48.863 60.9706 49.071 60.7823 49.1564 60.5326L69.2287 1.71667C69.3226 1.44035 69.2517 1.13521 69.0458 0.928761L69.046 0.928341ZM34.6261 46.111L24.7961 46.2604L61.8435 9.21292L34.6261 46.111ZM23.8635 35.348L60.7607 8.13326L23.7146 45.1793L23.8635 35.348ZM11.0974 21.8686L64.0683 3.79007L23.1793 33.9519L11.0974 21.8686ZM48.1066 58.8778L36.0233 46.7945L66.1851 5.90683L48.1066 58.8778ZM52.236 42.0338L50.3546 47.5429C50.249 47.8528 49.9582 48.0609 49.6312 48.0609C49.5474 48.0603 49.4637 48.0465 49.3842 48.0198C49.1922 47.9542 49.0343 47.8149 48.9446 47.6325C48.8555 47.4506 48.8422 47.2404 48.9078 47.0484L50.7883 41.5421C50.8507 41.3463 50.9894 41.1836 51.1735 41.0913C51.357 40.999 51.5698 40.9841 51.7646 41.0507C51.9593 41.1174 52.1188 41.2593 52.2073 41.445C52.2959 41.6306 52.306 41.8435 52.2356 42.0366L52.236 42.0338ZM56.9086 28.3486L53.4455 38.4987C53.3398 38.8086 53.0486 39.0172 52.721 39.0172C52.6367 39.0167 52.5535 39.0028 52.474 38.9756C52.282 38.91 52.1241 38.7708 52.0345 38.5889C51.9454 38.4064 51.932 38.1962 51.9976 38.0047L55.4613 27.8557V27.8552C55.5248 27.661 55.6635 27.5005 55.8465 27.4092C56.0295 27.318 56.2407 27.3036 56.4344 27.3698C56.628 27.4359 56.787 27.5762 56.8761 27.7603C56.9652 27.9438 56.9769 28.1561 56.9086 28.3487L56.9086 28.3486ZM19.6276 50.3479C19.9258 50.6467 19.9258 51.1311 19.6276 51.4293L9.92085 61.1366C9.62264 61.4353 9.13826 61.4359 8.83952 61.1371C8.54078 60.8384 8.54025 60.354 8.83899 60.0553L18.5463 50.3479C18.8445 50.0497 19.3289 50.0497 19.6277 50.3479H19.6276ZM6.88705 63.0885C7.18578 63.3867 7.18578 63.8711 6.88705 64.1698L3.33321 67.7242C3.03447 68.023 2.55009 68.023 2.25135 67.7242C1.95261 67.4255 1.95261 66.9411 2.25135 66.6424L5.80519 63.0885C5.94869 62.9445 6.14341 62.864 6.34611 62.864C6.54936 62.864 6.74408 62.9445 6.88703 63.0885L6.88705 63.0885ZM18.2961 39.8874L8.58824 49.5937C8.28791 49.8839 7.81099 49.8796 7.51599 49.5846C7.22098 49.2896 7.21672 48.8127 7.50692 48.5124L17.2148 38.805C17.5135 38.5068 17.9979 38.5068 18.2967 38.8055C18.5949 39.1043 18.5949 39.5887 18.2961 39.8874V39.8874ZM5.55499 52.6269L2.00115 56.1808C1.70135 56.4704 1.2239 56.4662 0.928892 56.1712C0.633884 55.8762 0.630156 55.3993 0.919824 55.0994L4.47325 51.5456C4.77146 51.2469 5.25584 51.2463 5.55458 51.5451C5.85385 51.8438 5.85385 52.3282 5.55511 52.6269H5.55499ZM31.1747 51.68C31.4729 51.9788 31.4729 52.4626 31.1747 52.7614L21.4636 62.4693C21.3212 62.617 21.1254 62.7013 20.92 62.7029C20.7152 62.7045 20.5178 62.624 20.3727 62.4789C20.2276 62.3338 20.1471 62.1369 20.1486 61.9315C20.1503 61.7261 20.2345 61.5304 20.3823 61.3879L30.0885 51.68C30.232 51.5365 30.4268 51.4555 30.63 51.4555C30.8332 51.4555 31.028 51.5365 31.1715 51.68H31.1747ZM18.4298 64.4212C18.728 64.7199 18.728 65.2038 18.4298 65.5025L14.8764 69.0563C14.5734 69.3263 14.1125 69.3124 13.826 69.0249C13.5396 68.7373 13.5278 68.2759 13.7988 67.974L17.3522 64.4205V64.4211C17.6504 64.125 18.1316 64.125 18.4298 64.4211L18.4298 64.4212Z" fill="black" stroke="black"/>
</svg>
