<svg width="134" height="134" viewBox="0 0 134 134" fill="none" xmlns="http://www.w3.org/2000/svg">
<g filter="url(#filter0_d_238_3257)">
<circle cx="64.9599" cy="60.9599" r="56.9599" fill="white"/>
</g>
<path d="M38.0861 36.122C40.7042 36.122 43.0311 33.9402 43.0311 31.3221C42.886 28.559 40.7042 26.3771 38.0861 26.3771C35.3225 26.3771 33.1406 28.559 33.1406 31.1771C33.1406 33.9407 35.3225 36.122 38.0861 36.122Z" fill="black"/>
<path d="M96.2648 63.4666V42.0857C95.3923 42.2313 94.2285 42.2313 93.3561 42.0857V60.5576H84.92C84.92 61.1395 84.92 62.3031 84.7744 63.4663L96.2648 63.4666Z" fill="black"/>
<path d="M94.8112 29.7227C92.0475 29.7227 89.8662 31.9046 89.8662 34.6677C89.8662 37.2858 92.0481 39.4676 94.8112 39.4676C97.5748 39.4676 99.6111 37.2858 99.6111 34.6677C99.6106 31.9046 97.4293 29.7227 94.8112 29.7227Z" fill="black"/>
<path d="M63.5388 32.6314V41.3582C64.4113 41.2126 65.5751 41.2126 66.4475 41.3582V29.7221L45.6484 29.7226C45.794 30.5951 45.794 31.7589 45.6484 32.6313L63.5388 32.6314Z" fill="black"/>
<path d="M64.9945 78.3022C73.4306 78.3022 80.7029 72.0479 81.8664 63.4665C83.1752 53.576 75.4666 44.2674 64.9945 44.2674C56.4133 44.2674 49.2861 50.6672 48.1225 58.9576C46.8137 68.8476 54.5223 78.3022 64.9945 78.3022ZM64.9945 50.958C67.6125 50.958 69.6488 53.1398 69.6488 55.6123C69.6488 58.2304 67.6125 60.2667 64.9945 60.2667C62.3764 60.2667 60.3401 58.0848 60.3401 55.6123C60.3401 52.9942 62.3764 50.958 64.9945 50.958ZM55.6858 67.6845C55.6858 64.4845 58.3039 61.8664 61.5038 61.8664H68.4856C71.6856 61.8664 74.3037 64.4845 74.3037 67.6845V71.6113H55.6863L55.6858 67.6845Z" fill="black"/>
<path d="M91.902 86.4473C89.2839 86.4473 86.957 88.6292 86.957 91.2472C86.957 94.0109 89.1389 96.1922 91.902 96.1922C94.5201 96.1922 96.7019 94.0104 96.7019 91.2472C96.8475 88.6287 94.6656 86.4473 91.902 86.4473Z" fill="black"/>
<path d="M66.4487 89.7926V81.0659C65.5762 81.2115 64.4125 81.2115 63.54 81.0659V92.702H84.3391C84.1935 91.8295 84.1935 90.6657 84.3391 89.7933L66.4487 89.7926Z" fill="black"/>
<path d="M35.1769 81.6474C32.4132 81.6474 30.377 83.8293 30.377 86.4473C30.377 89.0654 32.5588 91.2473 35.1769 91.2473C37.7949 91.2473 39.9768 89.0654 39.9768 86.4473C40.1224 83.8293 37.9405 81.6474 35.1769 81.6474Z" fill="black"/>
<path d="M33.7227 59.1031V78.8841C34.5952 78.7385 35.7589 78.7385 36.6314 78.8841L36.6319 62.0121H45.068C45.068 61.4302 45.068 60.2666 45.2136 59.1034L33.7227 59.1031Z" fill="black"/>
<defs>
<filter id="filter0_d_238_3257" x="0" y="0" width="133.92" height="133.92" filterUnits="userSpaceOnUse" color-interpolation-filters="sRGB">
<feFlood flood-opacity="0" result="BackgroundImageFix"/>
<feColorMatrix in="SourceAlpha" type="matrix" values="0 0 0 0 0 0 0 0 0 0 0 0 0 0 0 0 0 0 127 0" result="hardAlpha"/>
<feOffset dx="2" dy="6"/>
<feGaussianBlur stdDeviation="5"/>
<feComposite in2="hardAlpha" operator="out"/>
<feColorMatrix type="matrix" values="0 0 0 0 0 0 0 0 0 0 0 0 0 0 0 0 0 0 0.2 0"/>
<feBlend mode="normal" in2="BackgroundImageFix" result="effect1_dropShadow_238_3257"/>
<feBlend mode="normal" in="SourceGraphic" in2="effect1_dropShadow_238_3257" result="shape"/>
</filter>
</defs>
</svg>
