<svg width="26" height="26" viewBox="0 0 26 26" fill="none" xmlns="http://www.w3.org/2000/svg">
<path d="M17.9786 0.115601C22.2196 0.115601 25.0686 3.09129 25.0686 7.51909V17.7378C25.0686 22.1655 22.2196 25.1412 17.9774 25.1412H7.13296C2.89201 25.1412 0.0429688 22.1655 0.0429688 17.7378V7.51909C0.0429688 3.09129 2.89201 0.115601 7.13296 0.115601H17.9786ZM19.3585 13.3167C18.0172 12.4799 16.9816 13.655 16.7023 14.0308C16.433 14.3936 16.2015 14.794 15.9574 15.1943C15.361 16.1821 14.6778 17.3211 13.495 17.9835C11.7762 18.9352 10.4714 18.0584 9.53275 17.4205C9.18043 17.1829 8.83819 16.9582 8.4972 16.8084C7.65668 16.4455 6.90047 16.8588 5.7781 18.2844C5.18923 19.0295 4.6054 19.7681 4.01402 20.5041C3.66045 20.9445 3.74475 21.6237 4.22163 21.9181C4.98288 22.3869 5.91147 22.6387 6.96086 22.6387H17.5063C18.1015 22.6387 18.6979 22.5573 19.2666 22.3714C20.5476 21.953 21.5642 20.9948 22.0952 19.7293C22.5432 18.6653 22.7608 17.374 22.3418 16.2996C22.2022 15.9432 21.9933 15.6114 21.7001 15.3195C20.9313 14.5564 20.2129 13.8435 19.3585 13.3167ZM8.17487 5.12073C6.4498 5.12073 5.0481 6.52433 5.0481 8.24893C5.0481 9.97354 6.4498 11.3771 8.17487 11.3771C9.89869 11.3771 11.3016 9.97354 11.3016 8.24893C11.3016 6.52433 9.89869 5.12073 8.17487 5.12073Z" fill="#EFF2F4"/>
</svg>
