<svg width="26" height="26" viewBox="0 0 26 26" fill="none" xmlns="http://www.w3.org/2000/svg">
<path d="M12.5808 0.238678C19.6881 0.238678 25.0686 6.06588 25.0686 12.7327C25.0686 20.4647 18.7621 25.2643 12.5558 25.2643C10.5037 25.2643 8.22635 24.7129 6.39948 23.6352C5.76133 23.2467 5.22328 22.9585 4.53507 23.1841L2.00748 23.936C1.36933 24.1365 0.793738 23.6352 0.98143 22.9585L1.81979 20.1514C1.95743 19.7629 1.9324 19.3494 1.7322 19.0236C0.656097 17.0436 0.0429688 14.8756 0.0429688 12.7703C0.0429688 6.17866 5.31087 0.238678 12.5808 0.238678ZM18.2992 11.1788C17.4108 11.1788 16.6975 11.8931 16.6975 12.7828C16.6975 13.66 17.4108 14.3869 18.2992 14.3869C19.1876 14.3869 19.9008 13.66 19.9008 12.7828C19.9008 11.8931 19.1876 11.1788 18.2992 11.1788ZM12.5308 11.1788C11.6549 11.1662 10.9291 11.8931 10.9291 12.7703C10.9291 13.66 11.6424 14.3743 12.5308 14.3869C13.4192 14.3869 14.1324 13.66 14.1324 12.7828C14.1324 11.8931 13.4192 11.1788 12.5308 11.1788ZM6.76235 11.1788C5.87394 11.1788 5.16071 11.8931 5.16071 12.7828C5.16071 13.66 5.88646 14.3869 6.76235 14.3869C7.65076 14.3743 8.36399 13.66 8.36399 12.7828C8.36399 11.8931 7.65076 11.1788 6.76235 11.1788Z" fill="#EFF2F4"/>
</svg>
