<svg width="50" height="50" viewBox="0 0 50 50" fill="none" xmlns="http://www.w3.org/2000/svg">
<g clip-path="url(#clip0_1_816)">
<path d="M14.5833 0H8.33333C6.1232 0 4.00358 0.877974 2.44078 2.44078C0.877974 4.00358 0 6.1232 0 8.33333L0 14.5833C0 16.7935 0.877974 18.9131 2.44078 20.4759C4.00358 22.0387 6.1232 22.9167 8.33333 22.9167H14.5833C16.7935 22.9167 18.9131 22.0387 20.4759 20.4759C22.0387 18.9131 22.9167 16.7935 22.9167 14.5833V8.33333C22.9167 6.1232 22.0387 4.00358 20.4759 2.44078C18.9131 0.877974 16.7935 0 14.5833 0V0ZM18.75 14.5833C18.75 15.6884 18.311 16.7482 17.5296 17.5296C16.7482 18.311 15.6884 18.75 14.5833 18.75H8.33333C7.22826 18.75 6.16846 18.311 5.38705 17.5296C4.60565 16.7482 4.16667 15.6884 4.16667 14.5833V8.33333C4.16667 7.22826 4.60565 6.16846 5.38705 5.38705C6.16846 4.60565 7.22826 4.16667 8.33333 4.16667H14.5833C15.6884 4.16667 16.7482 4.60565 17.5296 5.38705C18.311 6.16846 18.75 7.22826 18.75 8.33333V14.5833Z" fill="#25BA6A"/>
<path d="M14.5833 27.0834H8.33333C6.1232 27.0834 4.00358 27.9613 2.44078 29.5242C0.877974 31.087 0 33.2066 0 35.4167L0 41.6667C0 43.8769 0.877974 45.9965 2.44078 47.5593C4.00358 49.1221 6.1232 50.0001 8.33333 50.0001H14.5833C16.7935 50.0001 18.9131 49.1221 20.4759 47.5593C22.0387 45.9965 22.9167 43.8769 22.9167 41.6667V35.4167C22.9167 33.2066 22.0387 31.087 20.4759 29.5242C18.9131 27.9613 16.7935 27.0834 14.5833 27.0834ZM18.75 41.6667C18.75 42.7718 18.311 43.8316 17.5296 44.613C16.7482 45.3944 15.6884 45.8334 14.5833 45.8334H8.33333C7.22826 45.8334 6.16846 45.3944 5.38705 44.613C4.60565 43.8316 4.16667 42.7718 4.16667 41.6667V35.4167C4.16667 34.3116 4.60565 33.2518 5.38705 32.4704C6.16846 31.689 7.22826 31.25 8.33333 31.25H14.5833C15.6884 31.25 16.7482 31.689 17.5296 32.4704C18.311 33.2518 18.75 34.3116 18.75 35.4167V41.6667Z" fill="#25BA6A"/>
<path d="M41.6668 27.0834H35.4168C33.2067 27.0834 31.0871 27.9613 29.5243 29.5242C27.9615 31.087 27.0835 33.2066 27.0835 35.4167V41.6667C27.0835 43.8769 27.9615 45.9965 29.5243 47.5593C31.0871 49.1221 33.2067 50.0001 35.4168 50.0001H41.6668C43.8769 50.0001 45.9966 49.1221 47.5594 47.5593C49.1222 45.9965 50.0001 43.8769 50.0001 41.6667V35.4167C50.0001 33.2066 49.1222 31.087 47.5594 29.5242C45.9966 27.9613 43.8769 27.0834 41.6668 27.0834ZM45.8335 41.6667C45.8335 42.7718 45.3945 43.8316 44.6131 44.613C43.8317 45.3944 42.7719 45.8334 41.6668 45.8334H35.4168C34.3118 45.8334 33.2519 45.3944 32.4705 44.613C31.6891 43.8316 31.2502 42.7718 31.2502 41.6667V35.4167C31.2502 34.3116 31.6891 33.2518 32.4705 32.4704C33.2519 31.689 34.3118 31.25 35.4168 31.25H41.6668C42.7719 31.25 43.8317 31.689 44.6131 32.4704C45.3945 33.2518 45.8335 34.3116 45.8335 35.4167V41.6667Z" fill="#25BA6A"/>
<path d="M29.1668 14.5834H35.4168V20.8334C35.4168 21.3859 35.6363 21.9158 36.027 22.3065C36.4177 22.6972 36.9476 22.9167 37.5002 22.9167C38.0527 22.9167 38.5826 22.6972 38.9733 22.3065C39.364 21.9158 39.5835 21.3859 39.5835 20.8334V14.5834H45.8335C46.386 14.5834 46.9159 14.3639 47.3066 13.9732C47.6973 13.5825 47.9168 13.0526 47.9168 12.5C47.9168 11.9475 47.6973 11.4176 47.3066 11.0269C46.9159 10.6362 46.386 10.4167 45.8335 10.4167H39.5835V4.16671C39.5835 3.61417 39.364 3.08427 38.9733 2.69357C38.5826 2.30287 38.0527 2.08337 37.5002 2.08337C36.9476 2.08337 36.4177 2.30287 36.027 2.69357C35.6363 3.08427 35.4168 3.61417 35.4168 4.16671V10.4167H29.1668C28.6143 10.4167 28.0844 10.6362 27.6937 11.0269C27.303 11.4176 27.0835 11.9475 27.0835 12.5C27.0835 13.0526 27.303 13.5825 27.6937 13.9732C28.0844 14.3639 28.6143 14.5834 29.1668 14.5834Z" fill="#25BA6A"/>
</g>
<defs>
<clipPath id="clip0_1_816">
<rect width="50" height="50" fill="white"/>
</clipPath>
</defs>
</svg>
