<svg width="24" height="22" viewBox="0 0 24 22" fill="none" xmlns="http://www.w3.org/2000/svg">
<path d="M18.5 -0.000244141H5.5C4.0418 0.00134403 2.64377 0.581317 1.61267 1.61242C0.581561 2.64353 0.00158817 4.04155 0 5.49976L0 16.4998C0.00158817 17.958 0.581561 19.356 1.61267 20.3871C2.64377 21.4182 4.0418 21.9982 5.5 21.9998H18.5C19.9582 21.9982 21.3562 21.4182 22.3873 20.3871C23.4184 19.356 23.9984 17.958 24 16.4998V5.49976C23.9984 4.04155 23.4184 2.64353 22.3873 1.61242C21.3562 0.581317 19.9582 0.00134403 18.5 -0.000244141ZM18.5 2.99976C19.1065 3.00177 19.6911 3.2263 20.143 3.63076L13.643 10.1308C13.2015 10.5524 12.6145 10.7877 12.004 10.7877C11.3935 10.7877 10.8065 10.5524 10.365 10.1308L3.865 3.63076C4.31485 3.22813 4.8963 3.00373 5.5 2.99976H18.5ZM18.5 18.9998H5.5C4.83696 18.9998 4.20107 18.7364 3.73223 18.2675C3.26339 17.7987 3 17.1628 3 16.4998V7.01676L8.239 12.2558C8.73276 12.7497 9.319 13.1416 9.96424 13.4089C10.6095 13.6763 11.3011 13.8139 11.9995 13.8139C12.6979 13.8139 13.3895 13.6763 14.0348 13.4089C14.68 13.1416 15.2662 12.7497 15.76 12.2558L21 7.01676V16.4998C21 17.1628 20.7366 17.7987 20.2678 18.2675C19.7989 18.7364 19.163 18.9998 18.5 18.9998Z" fill="#7E7E7E"/>
</svg>
