<svg width="60" height="70" viewBox="0 0 60 70" fill="none" xmlns="http://www.w3.org/2000/svg">
<path d="M21.1667 20.3704C21.1067 20.4331 21.1067 20.5319 21.1667 20.594L21.826 21.2533C21.8881 21.3132 21.9869 21.3132 22.0496 21.2533L22.7833 20.5196H22.7827C22.8332 20.478 22.9065 20.478 22.957 20.5196C23.2306 20.685 23.5286 20.8065 23.8394 20.8804C23.9026 20.8965 23.9482 20.952 23.9515 21.0169V22.0614C23.9515 22.1435 24.0181 22.2101 24.1008 22.2101H25.0453C25.0847 22.2101 25.123 22.1945 25.1508 22.1668C25.1791 22.1385 25.1946 22.1008 25.1946 22.0614V20.9547C25.1979 20.8898 25.2435 20.8343 25.3067 20.8182C25.6175 20.7444 25.9155 20.6229 26.1891 20.4575C26.2396 20.4159 26.3129 20.4159 26.3634 20.4575L27.0971 21.1912H27.0965C27.1592 21.2511 27.258 21.2511 27.3202 21.1912L27.9795 20.5319C28.0394 20.4697 28.0394 20.3709 27.9795 20.3082L27.2458 19.5745V19.5751C27.2042 19.5246 27.2042 19.4513 27.2458 19.4008C27.4112 19.1272 27.5327 18.8292 27.6065 18.5184C27.6226 18.4552 27.6781 18.4097 27.743 18.4063H28.7875C28.8269 18.4063 28.8646 18.3908 28.8929 18.3625C28.9207 18.3347 28.9362 18.2964 28.9362 18.257V17.3125C28.9362 17.2731 28.9207 17.2348 28.8929 17.207C28.8646 17.1787 28.8269 17.1632 28.7875 17.1632H27.743C27.6781 17.1599 27.6226 17.1144 27.6065 17.0511C27.5327 16.7403 27.4112 16.4423 27.2458 16.1687C27.2042 16.1182 27.2042 16.0449 27.2458 15.9944L27.9795 15.2608V15.2613C28.0394 15.1986 28.0394 15.0998 27.9795 15.0377L27.3202 14.3784C27.258 14.3184 27.1592 14.3184 27.0965 14.3784L26.3628 15.112H26.3634C26.3129 15.1537 26.2396 15.1537 26.1891 15.112C25.9155 14.9466 25.6175 14.8251 25.3067 14.7513C25.269 14.7624 25.229 14.758 25.1946 14.7391V13.6946C25.1946 13.6552 25.1791 13.6175 25.1508 13.5892C25.123 13.5614 25.0847 13.5459 25.0453 13.5459H24.1008C24.0181 13.5459 23.9515 13.6125 23.9515 13.6946V14.7391C23.9482 14.804 23.9026 14.8595 23.8394 14.8756C23.5286 14.9494 23.2306 15.071 22.957 15.2364C22.9065 15.278 22.8332 15.278 22.7827 15.2364L22.0868 14.4405C22.0241 14.3806 21.9253 14.3806 21.8631 14.4405L21.2044 15.0993V15.0998C21.1445 15.162 21.1445 15.2608 21.2044 15.3235L21.9381 16.0571L21.9375 16.0566C21.9791 16.1071 21.9791 16.1803 21.9375 16.2309C21.7721 16.5045 21.6506 16.8025 21.5773 17.1133C21.5607 17.1765 21.5057 17.222 21.4403 17.2254H20.3958H20.3964C20.3137 17.2254 20.2471 17.292 20.2471 17.3746V18.3192C20.2471 18.4019 20.3137 18.4685 20.3964 18.4685H21.4408H21.4403C21.5057 18.4718 21.5607 18.5173 21.5773 18.5806C21.6506 18.8914 21.7721 19.1894 21.9375 19.463C21.9791 19.5135 21.9791 19.5867 21.9375 19.6373L21.1667 20.3704ZM24.5731 15.9822C25.3273 15.9822 26.0072 16.4367 26.2957 17.1332C26.5843 17.8302 26.425 18.6322 25.8917 19.1655C25.3584 19.6989 24.5565 19.8581 23.8594 19.5696C23.1629 19.281 22.7084 18.6011 22.7084 17.8469C22.7084 16.8169 23.543 15.9822 24.5731 15.9822L24.5731 15.9822Z" fill="black"/>
<path d="M19.6008 25.9267C19.6008 25.5971 19.4698 25.2807 19.2368 25.0477C19.0037 24.8146 18.6873 24.6836 18.3577 24.6836H10.8989C10.2124 24.6836 9.65576 25.2402 9.65576 25.9267V33.3855C9.65576 33.7152 9.78674 34.0315 10.0198 34.2646C10.2529 34.4977 10.5692 34.6286 10.8989 34.6286H18.3577C18.6873 34.6286 19.0037 34.4977 19.2368 34.2646C19.4698 34.0315 19.6008 33.7152 19.6008 33.3855V25.9267ZM17.1145 32.1424H12.142V27.1699H17.1145V32.1424Z" fill="black"/>
<path d="M19.6008 38.3581C19.6008 38.0285 19.4698 37.7121 19.2368 37.4791C19.0037 37.246 18.6873 37.115 18.3577 37.115H10.8989C10.2124 37.115 9.65576 37.6716 9.65576 38.3581V45.8169C9.65576 46.1466 9.78674 46.4629 10.0198 46.696C10.2529 46.9291 10.5692 47.06 10.8989 47.06H18.3577C18.6873 47.06 19.0037 46.9291 19.2368 46.696C19.4698 46.4629 19.6008 46.1466 19.6008 45.8169V38.3581ZM17.1145 44.5738H12.142V39.6013H17.1145V44.5738Z" fill="black"/>
<path d="M18.3577 49.5461H10.8989C10.2124 49.5461 9.65576 50.1028 9.65576 50.7893V58.2481C9.65576 58.5777 9.78674 58.894 10.0198 59.1271C10.2529 59.3602 10.5692 59.4912 10.8989 59.4912H18.3577C18.6873 59.4912 19.0037 59.3602 19.2368 59.1271C19.4698 58.894 19.6008 58.5777 19.6008 58.2481V50.7893C19.6008 50.4596 19.4698 50.1433 19.2368 49.9102C19.0037 49.6771 18.6873 49.5461 18.3577 49.5461ZM17.1145 57.0049H12.142V52.0324H17.1145V57.0049Z" fill="black"/>
<path d="M34.5182 25.9268H23.33C22.6436 25.9268 22.0869 26.4834 22.0869 27.1699C22.0869 27.8564 22.6436 28.413 23.33 28.413H34.5182C35.2047 28.413 35.7614 27.8564 35.7614 27.1699C35.7614 26.4834 35.2047 25.9268 34.5182 25.9268Z" fill="black"/>
<path d="M23.33 30.8994C22.6436 30.8994 22.0869 31.4561 22.0869 32.1425C22.0869 32.829 22.6436 33.3857 23.33 33.3857H28.3026C28.9891 33.3857 29.5457 32.829 29.5457 32.1425C29.5457 31.4561 28.9891 30.8994 28.3026 30.8994H23.33Z" fill="black"/>
<path d="M34.5185 30.8994H33.2754C32.5889 30.8994 32.0322 31.4561 32.0322 32.1425C32.0322 32.829 32.5889 33.3857 33.2754 33.3857H34.5185C35.205 33.3857 35.7616 32.829 35.7616 32.1425C35.7616 31.4561 35.205 30.8994 34.5185 30.8994Z" fill="black"/>
<path d="M32.032 39.6013C32.032 39.2716 31.901 38.9553 31.6679 38.7222C31.4348 38.4891 31.1185 38.3582 30.7888 38.3582H23.33C22.6436 38.3582 22.0869 38.9148 22.0869 39.6013C22.0869 40.2878 22.6436 40.8444 23.33 40.8444H30.7888C31.1185 40.8444 31.4348 40.7134 31.6679 40.4804C31.901 40.2473 32.032 39.9309 32.032 39.6013Z" fill="black"/>
<path d="M27.0594 43.3307H23.33C22.6436 43.3307 22.0869 43.8873 22.0869 44.5738C22.0869 45.2603 22.6436 45.817 23.33 45.817H27.0594C27.7459 45.817 28.3026 45.2603 28.3026 44.5738C28.3026 43.8873 27.7459 43.3307 27.0594 43.3307Z" fill="black"/>
<path d="M27.0594 50.7894H23.33C22.6436 50.7894 22.0869 51.3461 22.0869 52.0326C22.0869 52.7191 22.6436 53.2757 23.33 53.2757H27.0594C27.7459 53.2757 28.3026 52.7191 28.3026 52.0326C28.3026 51.3461 27.7459 50.7894 27.0594 50.7894Z" fill="black"/>
<path d="M27.0594 55.762H23.33C22.6436 55.762 22.0869 56.3186 22.0869 57.0051C22.0869 57.6916 22.6436 58.2482 23.33 58.2482H27.0594C27.7459 58.2482 28.3026 57.6916 28.3026 57.0051C28.3026 56.3186 27.7459 55.762 27.0594 55.762Z" fill="black"/>
<path d="M57.7186 7.88174L54.9715 6.55148C54.1463 6.16133 53.2006 6.1125 52.3399 6.41496C51.4786 6.71741 50.7716 7.3473 50.372 8.16756L49.7254 9.51003V4.97253C49.7254 4.64288 49.5944 4.32654 49.3613 4.09345C49.1283 3.86037 48.8119 3.72939 48.4823 3.72939H32.3216V1.24313C32.3216 0.913481 32.1906 0.597143 31.9575 0.36406C31.7244 0.130976 31.4081 0 31.0784 0H18.6471C17.9606 0 17.404 0.556639 17.404 1.24313V3.72939H1.24328C0.556786 3.72939 0.000147414 4.28603 0.000147414 4.97253V7.45879C0.000147414 8.14528 0.556786 8.70192 1.24328 8.70192C1.92977 8.70192 2.48641 8.14528 2.48641 7.45879V6.21566H11.1883V8.70192H6.21581C5.52931 8.70192 4.97267 9.25856 4.97267 9.94505V63.3997C4.97267 63.7294 5.10365 64.0457 5.33673 64.2788C5.56982 64.5119 5.88615 64.6428 6.21581 64.6428H43.5098C43.8394 64.6428 44.1557 64.5119 44.3888 64.2788C44.6219 64.0457 44.7529 63.7294 44.7529 63.3997V62.1566C44.7529 61.4701 44.1962 60.9134 43.5098 60.9134C42.8233 60.9134 42.2666 61.4701 42.2666 62.1566H7.45894V11.1882H42.2666V24.9992L31.9114 46.506V46.5804V46.581C31.8748 46.677 31.8498 46.7774 31.8365 46.879L30.8792 57.4578L30.8797 57.4584C30.8275 57.9778 31.1056 58.4745 31.5756 58.7015C31.7271 58.7737 31.8925 58.8119 32.0607 58.8131H32.185C32.2838 58.8264 32.3842 58.8264 32.483 58.8131H32.6073C32.745 58.7631 32.8715 58.6871 32.9803 58.5894L40.6505 51.2427C40.7226 51.1678 40.7853 51.0845 40.8369 50.9941L42.2665 47.9235V57.1849C42.2665 57.8714 42.8231 58.428 43.5096 58.428C44.1961 58.428 44.7527 57.8714 44.7527 57.1849V42.7646L47.239 37.5934V67.1302H2.48626V12.4324C2.48626 11.7459 1.92962 11.1893 1.24313 11.1893C0.556639 11.1893 0 11.7459 0 12.4324V68.3733C0 68.703 0.130973 69.0193 0.36406 69.2524C0.597146 69.4855 0.913481 69.6165 1.24313 69.6165H48.4821C48.8118 69.6165 49.1281 69.4855 49.3612 69.2524C49.5943 69.0193 49.7253 68.703 49.7253 68.3733V32.4348L55.4314 20.575L57.582 16.162L59.3346 12.4326C59.7125 11.6134 59.7547 10.6788 59.4528 9.82868C59.1509 8.97852 58.5288 8.28038 57.7185 7.883L57.7186 7.88174ZM52.6096 9.24919C52.7189 9.01777 52.9154 8.83851 53.1562 8.75193C53.3921 8.65814 53.6546 8.65814 53.8899 8.75193L56.637 10.0694C56.8684 10.1788 57.0477 10.3758 57.1343 10.6166C57.2281 10.8519 57.2281 11.1144 57.1343 11.3498L55.8911 13.836L51.4036 11.6727L52.6096 9.24919ZM38.1765 50.0608L38.0771 50.1602L33.5646 54.4368V54.0389L34.0991 48.1341L36.7347 47.7734L38.1765 50.0608ZM50.3342 14.01L54.81 16.1606L53.7284 18.3982L49.2531 16.2477L50.3342 14.01ZM13.6739 6.21552H18.6464C18.976 6.21552 19.2924 6.08455 19.5255 5.85146C19.7585 5.61837 19.8895 5.30204 19.8895 4.97239V2.48613H29.8346V4.97239C29.8346 5.30204 29.9655 5.61838 30.1986 5.85146C30.4317 6.08454 30.748 6.21552 31.0777 6.21552H36.0502V8.70178H13.6739V6.21552ZM38.5365 8.70178V6.21552H47.2384V14.6688L44.7521 19.89V9.94491C44.7521 9.61526 44.6212 9.29893 44.3881 9.06584C44.155 8.83276 43.8387 8.70178 43.509 8.70178H38.5365ZM39.6431 47.6494L38.5365 45.7847C38.4843 45.6849 38.4122 45.5961 38.325 45.5239L38.2257 45.4496L38.0514 45.3252H37.9149L37.7284 45.2631H37.5792L37.2933 45.2625L35.155 45.5611L48.1707 18.4608L52.6459 20.6242L39.6431 47.6494Z" fill="black"/>
</svg>
