<svg width="68" height="68" viewBox="0 0 68 68" fill="none" xmlns="http://www.w3.org/2000/svg">
<path d="M60.4729 34.8973C60.3622 34.3869 59.9131 34.0228 59.3894 34.0228H48.7757C51.668 29.0899 53.8557 23.9407 53.8557 19.6353C53.8557 9.26086 44.919 0.821045 33.9347 0.821045C22.9504 0.821045 14.0137 9.26086 14.0137 19.6353C14.0137 23.9407 16.2004 29.0899 19.0937 34.0228H8.48007C7.95784 34.0228 7.50724 34.3869 7.39756 34.8973L0.757215 65.8855C0.687551 66.2131 0.769567 66.554 0.978559 66.8139C1.18904 67.0728 1.50574 67.2245 1.83973 67.2245H66.0297C66.3637 67.2245 66.6804 67.0728 66.8894 66.8139C67.0984 66.555 67.1814 66.2131 67.1117 65.8855L60.4729 34.8973ZM33.9343 3.03501C43.6976 3.03501 51.6418 10.4822 51.6418 19.6359C51.6418 29.8211 37.496 46.1441 33.9343 50.0929C30.373 46.1437 16.2267 29.8215 16.2267 19.6359C16.2267 10.4822 24.1709 3.03501 33.9343 3.03501ZM3.20782 65.0115L9.37435 36.2367H20.4494C25.8161 44.6908 32.6599 51.9927 33.1306 52.4923C33.3386 52.7126 33.6296 52.8376 33.9339 52.8376C34.2383 52.8376 34.5293 52.7126 34.7383 52.4913C35.2097 51.9923 42.0525 44.6898 47.4207 36.2357H58.4944L64.6609 65.0105H3.20807L3.20782 65.0115ZM42.1632 32.9165C42.7729 32.9165 43.2699 32.422 43.2699 31.8098V19.3591L45.1449 20.8023C45.3475 20.9574 45.5832 21.0315 45.8178 21.0315C46.1509 21.0315 46.4784 20.8833 46.6968 20.5987C47.0698 20.114 46.9789 19.4199 46.4942 19.0473L34.6078 9.90449C34.2115 9.60015 33.6572 9.60015 33.2584 9.90449L21.3735 19.0473C20.8888 19.4203 20.7979 20.1155 21.1709 20.5987C21.543 21.0834 22.2391 21.1753 22.7224 20.8023L24.5984 19.3591V31.8098C24.5984 32.422 25.0944 32.9165 25.7051 32.9165H42.1632ZM32.2976 30.7031V23.5815C32.2976 22.6793 33.0313 21.9447 33.9335 21.9447C34.3683 21.9447 34.7789 22.1151 35.0891 22.4249C35.3989 22.7337 35.5704 23.1443 35.5704 23.5815V30.7032L32.2976 30.7031ZM26.8119 17.6577L33.9335 12.1795L41.0565 17.6577V30.7031H37.7838V23.5815C37.7838 22.5533 37.3831 21.5874 36.6538 20.8592C35.9246 20.1319 34.9596 19.7312 33.9334 19.7312C31.8109 19.7312 30.084 21.459 30.084 23.5815V30.7031H26.8113L26.8119 17.6577Z" fill="black"/>
</svg>
