<svg width="23" height="26" viewBox="0 0 23 26" fill="none" xmlns="http://www.w3.org/2000/svg">
<path d="M16.7996 0.177124C20.6648 0.177124 22.817 2.40441 22.817 6.22082V19.1466C22.817 23.0255 20.6648 25.2028 16.7996 25.2028H6.31261C2.50871 25.2028 0.293945 23.0255 0.293945 19.1466V6.22082C0.293945 2.40441 2.50871 0.177124 6.31261 0.177124H16.7996ZM6.65046 17.3697C6.27507 17.3322 5.9122 17.5074 5.712 17.8327C5.51179 18.1455 5.51179 18.5585 5.712 18.8838C5.9122 19.1966 6.27507 19.3843 6.65046 19.3343H16.4605C16.9598 19.2842 17.3364 18.8575 17.3364 18.3583C17.3364 17.8452 16.9598 17.4198 16.4605 17.3697H6.65046ZM16.4605 11.6626H6.65046C6.11116 11.6626 5.67446 12.1018 5.67446 12.6399C5.67446 13.1779 6.11116 13.6159 6.65046 13.6159H16.4605C16.9986 13.6159 17.4365 13.1779 17.4365 12.6399C17.4365 12.1018 16.9986 11.6626 16.4605 11.6626ZM10.3905 5.99559H6.65046V6.0081C6.11116 6.0081 5.67446 6.44605 5.67446 6.9841C5.67446 7.52215 6.11116 7.9601 6.65046 7.9601H10.3905C10.9298 7.9601 11.3678 7.52215 11.3678 6.97033C11.3678 6.43353 10.9298 5.99559 10.3905 5.99559Z" fill="#EFF2F4"/>
</svg>
