<svg width="140" height="140" viewBox="0 0 140 140" fill="none" xmlns="http://www.w3.org/2000/svg">
<g filter="url(#filter0_d_240_3338)">
<circle cx="67.9773" cy="63.9773" r="59.9773" fill="white"/>
</g>
<path d="M37.8463 63.4361C37.8463 61.9174 37.9305 60.3145 38.1836 58.8799C38.3525 57.8674 38.5209 56.8549 38.774 55.9266L33.6274 52.9733C32.6991 52.4671 32.3618 51.2857 32.868 50.3579L39.0271 39.6426C39.5334 38.7143 40.7148 38.377 41.6425 38.8832L46.7892 41.8365C48.6452 40.0647 50.6702 38.5459 52.8641 37.2803C55.058 36.0147 57.4203 35.0022 59.8674 34.327L59.8674 28.421C59.8674 27.4085 60.7109 26.4802 61.8082 26.4802L74.127 26.4802C75.2237 26.4802 76.0678 27.3238 76.0678 28.421L76.0678 34.327C78.5149 35.0022 80.8771 36.0147 83.0711 37.2803C85.265 38.5459 87.29 40.0646 89.146 41.8365L94.2927 38.8832C95.221 38.377 96.4018 38.6301 96.9081 39.6426L103.067 50.3579C103.573 51.2862 103.32 52.4671 102.308 52.9733L97.1612 55.9266C97.4143 56.9391 97.5833 57.8674 97.7516 58.8799C98.0047 60.3986 98.0889 61.9174 98.0889 63.4361C98.0889 64.9549 98.0047 66.5578 97.7516 67.9923C97.5827 69.0048 97.4143 70.0173 97.1612 70.9456L102.308 73.8989C103.236 74.4052 103.573 75.5866 103.067 76.5143L96.9081 87.2297C96.4018 88.158 95.2204 88.4953 94.2927 87.989L89.146 85.0357C87.29 86.8076 85.265 88.3263 83.0711 89.5919C80.8771 90.8576 78.599 91.8701 76.0678 92.5452L76.0678 98.4512C76.0678 99.5479 75.2243 100.392 74.127 100.392L61.8929 100.392C60.8804 100.392 59.9521 99.5485 59.9521 98.4512L59.9521 92.5452C57.5051 91.8701 55.1428 90.8576 52.9489 89.5919C50.755 88.3263 48.73 86.8076 46.8739 85.0357L41.7273 87.989C40.799 88.4953 39.6181 88.2422 39.1119 87.3138L32.9528 76.5985C32.4465 75.6702 32.6996 74.4893 33.7121 73.9831L38.8588 71.0298C38.6056 70.1015 38.4367 69.089 38.2683 68.0765C37.9305 66.5578 37.8463 64.9549 37.8463 63.4361ZM41.9804 59.4703C41.8115 60.736 41.7273 62.0858 41.7273 63.4361C41.7273 64.7859 41.8115 66.1363 41.9804 67.4019C42.2335 68.7517 42.4867 70.0173 42.9087 71.2829C43.1619 72.1265 42.8245 73.0548 42.0652 73.561L37.34 76.3454L41.5589 83.6859L46.2841 80.9858C47.0435 80.4795 48.1401 80.6485 48.7311 81.3231C50.503 83.2639 52.6122 84.951 54.975 86.3014C57.2531 87.567 59.6154 88.5795 62.2314 89.1699C63.1597 89.2541 63.9191 90.0982 63.9191 91.1107L63.9179 96.511L72.3552 96.511L72.3552 91.0265C72.3552 90.183 72.9456 89.3388 73.8739 89.1705C76.4893 88.58 79.0206 87.6517 81.2987 86.3019C83.6609 84.9521 85.6859 83.2645 87.5425 81.3237C88.133 80.6485 89.1455 80.4801 89.9048 80.9864L94.63 83.6859L98.8489 76.3454L94.2085 73.6452C93.3649 73.2231 92.9429 72.2107 93.196 71.3671C93.6181 70.1015 93.8712 68.8359 94.0396 67.4861C94.2085 66.2205 94.3769 64.8707 94.3769 63.5203C94.3769 62.1705 94.2927 60.8201 94.0396 59.5545C93.8706 58.2047 93.5333 56.9391 93.196 55.6735C92.9429 54.8299 93.2802 53.9016 94.0396 53.3954L98.7647 50.611L94.5458 43.2705L89.8206 45.9707C89.0613 46.4769 88.0488 46.308 87.3736 45.6333C85.5176 43.6925 83.4926 42.0054 81.1297 40.6551C78.9358 39.3895 76.4893 38.377 73.8733 37.7866C72.945 37.7024 72.1857 36.8582 72.1857 35.8457L72.1857 30.3612L63.8332 30.3612L63.8332 35.8457C63.8332 36.6893 63.2428 37.5334 62.3145 37.7018C59.699 38.2922 57.1678 39.2205 54.8897 40.5703C52.6116 41.9201 50.5024 43.6078 48.6458 45.5486C48.0554 46.2238 47.0429 46.3921 46.2835 45.9707L41.4742 43.1863L37.2553 50.5269L41.8963 53.227C42.7398 53.6491 43.1619 54.5768 42.9088 55.5051C42.4867 56.7708 42.2336 58.1205 41.9804 59.4703L41.9804 59.4703ZM58.9396 63.4361C58.9396 60.9049 59.9521 58.6268 61.6398 57.0239C63.3275 55.3362 65.5208 54.3237 68.0521 54.3237C70.5833 54.3237 72.8614 55.3362 74.5491 57.0239C76.2368 58.7115 77.1645 60.9049 77.1645 63.4361C77.1645 65.9674 76.152 68.2455 74.5491 69.9331C72.8614 71.5361 70.5833 72.5485 68.0521 72.5485C65.5208 72.5485 63.2427 71.5361 61.6398 69.9331C59.9521 68.2455 58.9396 65.9674 58.9396 63.4361ZM64.3394 59.7235C63.4111 60.6518 62.8207 62.0016 62.8207 63.4361C62.8207 64.8707 63.4111 66.2205 64.3394 67.1488C65.2677 68.0771 66.6175 68.6675 68.0521 68.6675C69.4866 68.6675 70.8364 68.0771 71.7647 67.1488C72.693 66.2205 73.2835 64.8707 73.2835 63.4361C73.2835 62.0016 72.693 60.6518 71.7647 59.7235C70.8364 58.7952 69.4866 58.2047 68.0521 58.2047C66.6175 58.2047 65.2677 58.7957 64.3394 59.7235ZM48.5619 63.4361C48.5619 58.1205 50.7558 53.227 54.2148 49.6833C57.6743 46.1396 62.6526 44.0299 68.0524 44.0299C73.4521 44.0299 78.2614 46.2238 81.8052 49.6827C85.3489 53.227 87.4586 58.1205 87.4586 63.4361C87.4586 68.8359 85.2647 73.6452 81.8057 77.1889C78.2615 80.7327 73.4521 82.8424 68.0524 82.8424C62.7368 82.8424 57.8433 80.6485 54.2995 77.1895C50.7558 73.73 48.5619 68.8359 48.5619 63.4361ZM56.9991 52.4677C54.2148 55.252 52.4429 59.133 52.4429 63.4361C52.4429 67.7392 54.2148 71.6202 56.9991 74.4893C59.7835 77.2737 63.6645 79.0456 67.9676 79.0456C72.2707 79.0456 76.1517 77.3579 79.0208 74.4893C81.8052 71.705 83.577 67.7392 83.577 63.4361C83.577 59.133 81.8052 55.252 79.0208 52.4677C76.2365 49.6833 72.2707 47.9115 67.9676 47.9115C63.7493 47.8267 59.8682 49.5986 56.9991 52.4677Z" fill="black"/>
<defs>
<filter id="filter0_d_240_3338" x="0" y="0" width="139.954" height="139.955" filterUnits="userSpaceOnUse" color-interpolation-filters="sRGB">
<feFlood flood-opacity="0" result="BackgroundImageFix"/>
<feColorMatrix in="SourceAlpha" type="matrix" values="0 0 0 0 0 0 0 0 0 0 0 0 0 0 0 0 0 0 127 0" result="hardAlpha"/>
<feOffset dx="2" dy="6"/>
<feGaussianBlur stdDeviation="5"/>
<feComposite in2="hardAlpha" operator="out"/>
<feColorMatrix type="matrix" values="0 0 0 0 0 0 0 0 0 0 0 0 0 0 0 0 0 0 0.2 0"/>
<feBlend mode="normal" in2="BackgroundImageFix" result="effect1_dropShadow_240_3338"/>
<feBlend mode="normal" in="SourceGraphic" in2="effect1_dropShadow_240_3338" result="shape"/>
</filter>
</defs>
</svg>
