<svg width="25" height="26" viewBox="0 0 25 26" fill="none" xmlns="http://www.w3.org/2000/svg">
<path d="M13.4526 0.484955C14.3989 0.484955 15.2556 1.01049 15.7288 1.78629C15.959 2.16167 16.1124 2.62465 16.0741 3.11265C16.0485 3.48803 16.1636 3.86342 16.3682 4.21378C17.0203 5.27736 18.4653 5.67778 19.5906 5.07716C20.8566 4.35142 22.455 4.78936 23.1839 6.02813L24.0407 7.50465C24.7824 8.74342 24.3732 10.3325 23.0944 11.0458C22.0075 11.6839 21.6239 13.0979 22.276 14.174C22.4806 14.5118 22.7108 14.7996 23.0689 14.9748C23.5164 15.2125 23.8617 15.5879 24.1046 15.9633C24.5778 16.7391 24.5394 17.6901 24.0791 18.5284L23.1839 20.03C22.7108 20.8308 21.8285 21.3313 20.9205 21.3313C20.473 21.3313 19.9743 21.2062 19.5651 20.9559C19.2326 20.7432 18.849 20.6681 18.4398 20.6681C17.1738 20.6681 16.1124 21.7067 16.0741 22.9455C16.0741 24.3844 14.8976 25.5106 13.427 25.5106H11.6879C10.2046 25.5106 9.0281 24.3844 9.0281 22.9455C9.00253 21.7067 7.94116 20.6681 6.67519 20.6681C6.2532 20.6681 5.86957 20.7432 5.54988 20.9559C5.14068 21.2062 4.62918 21.3313 4.1944 21.3313C3.27369 21.3313 2.39135 20.8308 1.91821 20.03L1.03587 18.5284C0.56273 17.7151 0.537155 16.7391 1.0103 15.9633C1.2149 15.5879 1.59852 15.2125 2.0333 14.9748C2.39135 14.7996 2.62153 14.5118 2.83892 14.174C3.4783 13.0979 3.09467 11.6839 2.00773 11.0458C0.741756 10.3325 0.332554 8.74342 1.06145 7.50465L1.91821 6.02813C2.65989 4.78936 4.24555 4.35142 5.52431 5.07716C6.63683 5.67778 8.08182 5.27736 8.73399 4.21378C8.93859 3.86342 9.05368 3.48803 9.0281 3.11265C9.00253 2.62465 9.14319 2.16167 9.38615 1.78629C9.85929 1.01049 10.7161 0.50998 11.6496 0.484955H13.4526ZM12.5703 9.46916C10.5626 9.46916 8.93859 11.0458 8.93859 13.0103C8.93859 14.9748 10.5626 16.5389 12.5703 16.5389C14.5779 16.5389 16.1636 14.9748 16.1636 13.0103C16.1636 11.0458 14.5779 9.46916 12.5703 9.46916Z" fill="#EFF2F4"/>
</svg>
