<svg width="50" height="50" viewBox="0 0 50 50" fill="none" xmlns="http://www.w3.org/2000/svg">
<g clip-path="url(#clip0_1_804)">
<path d="M38.7107 4.45981L25.6587 0.107728C25.2313 -0.0346073 24.7693 -0.0346073 24.342 0.107728L11.2899 4.45981C9.21472 5.14915 7.40953 6.47493 6.13084 8.24879C4.85215 10.0227 4.16499 12.1544 4.167 14.3411V25.0015C4.167 40.7577 23.3337 49.4598 24.1545 49.8223C24.4208 49.9406 24.7089 50.0017 25.0003 50.0017C25.2917 50.0017 25.5799 49.9406 25.8462 49.8223C26.667 49.4598 45.8337 40.7577 45.8337 25.0015V14.3411C45.8357 12.1544 45.1485 10.0227 43.8698 8.24879C42.5911 6.47493 40.7859 5.14915 38.7107 4.45981ZM41.667 25.0015C41.667 36.3661 28.5024 43.8202 25.0003 45.6036C21.4941 43.8265 8.33366 36.3952 8.33366 25.0015V14.3411C8.33379 13.0291 8.74674 11.7505 9.51401 10.6864C10.2813 9.6222 11.364 8.82646 12.6087 8.4119L25.0003 4.28064L37.392 8.4119C38.6367 8.82646 39.7194 9.6222 40.4867 10.6864C41.2539 11.7505 41.6669 13.0291 41.667 14.3411V25.0015Z" fill="#FF6B6B"/>
<path d="M31.8747 17.2923L23.1497 26.0423L18.4747 21.1673C18.287 20.9622 18.0603 20.7967 17.8077 20.6805C17.5551 20.5644 17.2819 20.5 17.004 20.4911C16.7262 20.4822 16.4493 20.529 16.1899 20.6287C15.9304 20.7285 15.6935 20.8791 15.4931 21.0718C15.2928 21.2646 15.133 21.4954 15.0233 21.7508C14.9135 22.0062 14.856 22.281 14.8541 22.559C14.8521 22.837 14.9059 23.1125 15.0121 23.3694C15.1183 23.6263 15.2749 23.8594 15.4726 24.0548L20.2767 29.0548C20.635 29.4418 21.0681 29.7521 21.5497 29.967C22.0313 30.1818 22.5515 30.2968 23.0788 30.3048H23.1476C23.6644 30.3065 24.1763 30.2056 24.6538 30.0078C25.1312 29.81 25.5646 29.5194 25.9288 29.1528L34.8288 20.2527C35.0232 20.0588 35.1775 19.8284 35.2828 19.5748C35.3882 19.3212 35.4426 19.0493 35.4429 18.7747C35.4431 18.5001 35.3893 18.2281 35.2845 17.9743C35.1797 17.7205 35.0259 17.4898 34.8319 17.2954C34.638 17.1011 34.4076 16.9468 34.154 16.8414C33.9004 16.7361 33.6286 16.6817 33.3539 16.6814C33.0793 16.6811 32.8074 16.7349 32.5535 16.8397C32.2997 16.9446 32.069 17.0983 31.8747 17.2923Z" fill="#FF6B6B"/>
</g>
<defs>
<clipPath id="clip0_1_804">
<rect width="50" height="50" fill="white"/>
</clipPath>
</defs>
</svg>
