<svg width="27" height="26" viewBox="0 0 27 26" fill="none" xmlns="http://www.w3.org/2000/svg">
<path d="M11.9211 0.933346C15.0274 0.933346 17.5609 3.4234 17.5609 6.48904V12.4827H9.92228C9.37484 12.4827 8.94198 12.9081 8.94198 13.4462C8.94198 13.9717 9.37484 14.4097 9.92228 14.4097H17.5609V20.3908C17.5609 23.4564 15.0274 25.959 11.8956 25.959H5.69556C2.57645 25.959 0.0429688 23.4689 0.0429688 20.4033V6.50155C0.0429688 3.4234 2.58918 0.933346 5.70829 0.933346H11.9211ZM20.7394 9.12949C21.1148 8.7416 21.7279 8.7416 22.1033 9.11698L25.7571 12.7582C25.9448 12.9459 26.0449 13.1836 26.0449 13.4464C26.0449 13.6967 25.9448 13.9469 25.7571 14.1221L22.1033 17.7633C21.9156 17.951 21.6654 18.0511 21.4276 18.0511C21.1774 18.0511 20.9271 17.951 20.7394 17.7633C20.364 17.388 20.364 16.7748 20.7394 16.3994L22.7415 14.4099H17.5612V12.4829H22.7415L20.7394 10.4934C20.364 10.118 20.364 9.50488 20.7394 9.12949Z" fill="white"/>
</svg>
