<svg width="29" height="21" viewBox="0 0 29 21" fill="none" xmlns="http://www.w3.org/2000/svg">
<path d="M14.4913 14.1139C18.7847 14.1139 22.4507 14.7946 22.4507 17.5183C22.4507 20.2409 18.8082 20.9464 14.4913 20.9464C10.198 20.9464 6.53201 20.2657 6.53201 17.5431C6.53201 14.8194 10.1744 14.1139 14.4913 14.1139ZM21.3559 12.4738C22.9973 12.4434 24.7619 12.6688 25.414 12.8288C26.7955 13.1004 27.7041 13.6548 28.0806 14.4605C28.3988 15.122 28.3988 15.8895 28.0806 16.5498C27.5047 17.7996 25.6482 18.2008 24.9266 18.3044C24.7776 18.327 24.6577 18.1974 24.6734 18.0475C25.042 14.5845 22.11 12.9426 21.3514 12.5651C21.3189 12.5482 21.3122 12.5223 21.3156 12.5065C21.3178 12.4952 21.3313 12.4772 21.3559 12.4738ZM7.44606 12.4715L7.75515 12.4743C7.7798 12.4776 7.79212 12.4957 7.79436 12.5058C7.79772 12.5227 7.791 12.5475 7.75963 12.5655C7 12.943 4.06791 14.585 4.43652 18.0468C4.45221 18.1978 4.33344 18.3263 4.18443 18.3049C3.46289 18.2012 1.60639 17.8 1.0305 16.5503C0.711187 15.8888 0.711187 15.1225 1.0305 14.461C1.40696 13.6553 2.31448 13.1008 3.69594 12.8281C4.34913 12.6692 6.11264 12.4438 7.75515 12.4743L7.44606 12.4715ZM14.4913 0.925873C17.4145 0.925873 19.7583 3.28112 19.7583 6.22236C19.7583 9.16248 17.4145 11.52 14.4913 11.52C11.5682 11.52 9.22433 9.16248 9.22433 6.22236C9.22433 3.28112 11.5682 0.925873 14.4913 0.925873ZM21.6416 1.80915C24.465 1.80915 26.6823 4.48106 25.9272 7.45723C25.4174 9.46089 23.5721 10.7918 21.5161 10.7377C21.31 10.732 21.1072 10.7129 20.9111 10.6791C20.7688 10.6543 20.6971 10.4931 20.7778 10.3737C21.5621 9.21296 22.0091 7.81672 22.0091 6.31793C22.0091 4.75377 21.5206 3.29555 20.6725 2.09989C20.6456 2.0627 20.6254 2.00523 20.6523 1.96241C20.6747 1.92747 20.7162 1.90944 20.7554 1.90043C21.0411 1.84183 21.3346 1.80915 21.6416 1.80915ZM7.46777 1.80903C7.77476 1.80903 8.0683 1.84171 8.35512 1.90031C8.39322 1.90933 8.43579 1.92849 8.4582 1.96229C8.48397 2.00512 8.46492 2.06259 8.43803 2.09978C7.58989 3.29543 7.10139 4.75366 7.10139 6.31781C7.10139 7.81661 7.54844 9.21285 8.33272 10.3736C8.41339 10.493 8.34168 10.6542 8.19939 10.679C8.0022 10.7139 7.80053 10.7319 7.59437 10.7376C5.53844 10.7917 3.69313 9.46077 3.18335 7.45712C2.42708 4.48095 4.64436 1.80903 7.46777 1.80903Z" fill="#EFF2F4"/>
</svg>
