<svg width="67" height="67" viewBox="0 0 67 67" fill="none" xmlns="http://www.w3.org/2000/svg">
<path d="M35.8575 0.6875C37.1519 0.6875 38.2013 1.73683 38.2013 3.03125C38.2013 4.23321 37.2965 5.22385 36.1308 5.35923L35.8575 5.375H12.4062C8.66169 5.375 5.60079 8.30216 5.38694 11.9931L5.375 12.4062V54.5938C5.375 58.3383 8.30216 61.3992 11.9931 61.6131L12.4062 61.625H54.5938C58.3383 61.625 61.3992 58.6978 61.6131 55.0069L61.625 54.5938V31.165C61.625 29.8706 62.6743 28.8212 63.9688 28.8212C65.1707 28.8212 66.1613 29.726 66.2967 30.8916L66.3125 31.165V54.5938C66.3125 60.8955 61.3383 66.0355 55.1021 66.3017L54.5938 66.3125H12.4062C6.10448 66.3125 0.964489 61.3383 0.698327 55.1021L0.6875 54.5938V12.4062C0.6875 6.10448 5.66166 0.964489 11.8979 0.698327L12.4062 0.6875H35.8575ZM63.2359 5.37289C65.9818 8.11877 65.9818 12.5707 63.2359 15.3166L40.5413 38.0112C39.3123 39.2402 37.8253 40.1804 36.1881 40.7638L27.7475 43.7711C26.5282 44.2056 25.1875 43.5693 24.7531 42.35C24.5667 41.8268 24.5721 41.2545 24.7684 40.7349L28.2078 31.6321C28.6781 30.3875 29.4078 29.2573 30.3486 28.3165L53.2922 5.37289C56.0381 2.62702 60.49 2.62702 63.2359 5.37289ZM56.8112 8.50533L56.6068 8.68746L33.6632 31.6311C33.2868 32.0074 32.9781 32.4443 32.7492 32.9227L32.5928 33.2889L30.9434 37.6575L34.6148 36.3482C35.4334 36.0565 36.1895 35.6161 36.8455 35.0507L37.2267 34.6966L59.9214 12.002C60.8367 11.0867 60.8367 9.60275 59.9214 8.68746C59.0714 7.83754 57.7312 7.77683 56.8112 8.50533Z" fill="black"/>
</svg>
