<svg width="140" height="140" viewBox="0 0 140 140" fill="none" xmlns="http://www.w3.org/2000/svg">
<g filter="url(#filter0_d_238_3288)">
<circle cx="67.9773" cy="63.9773" r="59.9773" fill="white"/>
</g>
<path d="M62.6579 50.2539C62.5979 50.3166 62.5979 50.4154 62.6579 50.4775L63.3172 51.1368C63.3793 51.1968 63.4781 51.1968 63.5408 51.1368L64.2745 50.4032H64.2739C64.3244 50.3615 64.3977 50.3615 64.4482 50.4032C64.7218 50.5685 65.0198 50.6901 65.3306 50.7639C65.3939 50.78 65.4394 50.8355 65.4427 50.9004V51.9449C65.4427 52.027 65.5093 52.0936 65.592 52.0936H66.5365C66.5759 52.0936 66.6142 52.0781 66.642 52.0503C66.6703 52.022 66.6858 51.9843 66.6858 51.9449V50.8383C66.6892 50.7733 66.7347 50.7178 66.7979 50.7017C67.1087 50.6279 67.4067 50.5064 67.6803 50.341C67.7308 50.2994 67.8041 50.2994 67.8546 50.341L68.5883 51.0747H68.5877C68.6504 51.1346 68.7492 51.1346 68.8114 51.0747L69.4707 50.4154C69.5306 50.3532 69.5306 50.2544 69.4707 50.1917L68.737 49.458V49.4586C68.6954 49.4081 68.6954 49.3348 68.737 49.2843C68.9024 49.0107 69.0239 48.7127 69.0977 48.4019C69.1138 48.3387 69.1693 48.2932 69.2342 48.2898H70.2787C70.3181 48.2898 70.3558 48.2743 70.3841 48.246C70.4119 48.2182 70.4274 48.18 70.4274 48.1405V47.196C70.4274 47.1566 70.4119 47.1183 70.3841 47.0906C70.3558 47.0622 70.3181 47.0467 70.2787 47.0467H69.2342C69.1693 47.0434 69.1138 46.9979 69.0977 46.9346C69.0239 46.6238 68.9024 46.3258 68.737 46.0522C68.6954 46.0017 68.6954 45.9285 68.737 45.8779L69.4707 45.1443V45.1448C69.5306 45.0821 69.5306 44.9833 69.4707 44.9212L68.8114 44.2619C68.7492 44.2019 68.6504 44.2019 68.5877 44.2619L67.854 44.9955H67.8546C67.8041 45.0372 67.7308 45.0372 67.6803 44.9955C67.4067 44.8302 67.1087 44.7086 66.7979 44.6348C66.7602 44.6459 66.7202 44.6415 66.6858 44.6226V43.5781C66.6858 43.5387 66.6703 43.501 66.642 43.4727C66.6142 43.445 66.5759 43.4294 66.5365 43.4294H65.592C65.5093 43.4294 65.4427 43.496 65.4427 43.5781V44.6226C65.4394 44.6875 65.3939 44.743 65.3306 44.7591C65.0198 44.8329 64.7218 44.9545 64.4482 45.1199C64.3977 45.1615 64.3244 45.1615 64.2739 45.1199L63.578 44.324C63.5153 44.2641 63.4165 44.2641 63.3544 44.324L62.6956 44.9828V44.9833C62.6357 45.0455 62.6357 45.1443 62.6956 45.207L63.4293 45.9407L63.4287 45.9401C63.4704 45.9906 63.4704 46.0639 63.4287 46.1144C63.2633 46.388 63.1418 46.686 63.0685 46.9968C63.0519 47.06 62.997 47.1055 62.9315 47.1089H61.887H61.8876C61.8049 47.1089 61.7383 47.1755 61.7383 47.2582V48.2027C61.7383 48.2854 61.8049 48.352 61.8876 48.352H62.932H62.9315C62.997 48.3553 63.0519 48.4008 63.0685 48.4641C63.1418 48.7749 63.2633 49.0729 63.4287 49.3465C63.4704 49.397 63.4704 49.4703 63.4287 49.5208L62.6579 50.2539ZM66.0643 45.8657C66.8185 45.8657 67.4984 46.3202 67.787 47.0167C68.0755 47.7137 67.9163 48.5157 67.3829 49.049C66.8496 49.5824 66.0477 49.7416 65.3506 49.4531C64.6541 49.1645 64.1996 48.4846 64.1996 47.7304C64.1996 46.7004 65.0342 45.8657 66.0643 45.8657L66.0643 45.8657Z" fill="black"/>
<path d="M61.0925 55.8103C61.0925 55.4806 60.9615 55.1643 60.7285 54.9312C60.4954 54.6981 60.179 54.5671 59.8494 54.5671H52.3906C51.7041 54.5671 51.1475 55.1238 51.1475 55.8103V63.2691C51.1475 63.5987 51.2784 63.915 51.5115 64.1481C51.7446 64.3812 52.0609 64.5122 52.3906 64.5122H59.8494C60.179 64.5122 60.4954 64.3812 60.7285 64.1481C60.9615 63.915 61.0925 63.5987 61.0925 63.2691V55.8103ZM58.6062 62.0259H53.6337V57.0534H58.6062V62.0259Z" fill="black"/>
<path d="M61.0925 68.2417C61.0925 67.912 60.9615 67.5957 60.7285 67.3626C60.4954 67.1295 60.179 66.9986 59.8494 66.9986H52.3906C51.7041 66.9986 51.1475 67.5552 51.1475 68.2417V75.7005C51.1475 76.0301 51.2784 76.3465 51.5115 76.5796C51.7446 76.8126 52.0609 76.9436 52.3906 76.9436H59.8494C60.179 76.9436 60.4954 76.8126 60.7285 76.5796C60.9615 76.3465 61.0925 76.0301 61.0925 75.7005V68.2417ZM58.6062 74.4574H53.6337V69.4848H58.6062V74.4574Z" fill="black"/>
<path d="M59.8494 79.4297H52.3906C51.7041 79.4297 51.1475 79.9864 51.1475 80.6728V88.1316C51.1475 88.4613 51.2784 88.7776 51.5115 89.0107C51.7446 89.2438 52.0609 89.3748 52.3906 89.3748H59.8494C60.179 89.3748 60.4954 89.2438 60.7285 89.0107C60.9615 88.7776 61.0925 88.4613 61.0925 88.1316V80.6728C61.0925 80.3432 60.9615 80.0269 60.7285 79.7938C60.4954 79.5607 60.179 79.4297 59.8494 79.4297ZM58.6062 86.8885H53.6337V81.916H58.6062V86.8885Z" fill="black"/>
<path d="M76.0094 55.8104H64.8213C64.1348 55.8104 63.5781 56.367 63.5781 57.0535C63.5781 57.74 64.1348 58.2966 64.8213 58.2966H76.0094C76.6959 58.2966 77.2526 57.74 77.2526 57.0535C77.2526 56.367 76.6959 55.8104 76.0094 55.8104Z" fill="black"/>
<path d="M64.8213 60.7829C64.1348 60.7829 63.5781 61.3396 63.5781 62.0261C63.5781 62.7126 64.1348 63.2692 64.8213 63.2692H69.7938C70.4803 63.2692 71.0369 62.7126 71.0369 62.0261C71.0369 61.3396 70.4803 60.7829 69.7938 60.7829H64.8213Z" fill="black"/>
<path d="M76.0097 60.7829H74.7666C74.0801 60.7829 73.5234 61.3396 73.5234 62.0261C73.5234 62.7126 74.0801 63.2692 74.7666 63.2692H76.0097C76.6962 63.2692 77.2528 62.7126 77.2528 62.0261C77.2528 61.3396 76.6962 60.7829 76.0097 60.7829Z" fill="black"/>
<path d="M73.5232 69.4848C73.5232 69.1551 73.3922 68.8388 73.1591 68.6057C72.926 68.3726 72.6097 68.2416 72.28 68.2416H64.8213C64.1348 68.2416 63.5781 68.7983 63.5781 69.4848C63.5781 70.1713 64.1348 70.7279 64.8213 70.7279H72.28C72.6097 70.7279 72.926 70.5969 73.1591 70.3638C73.3922 70.1308 73.5232 69.8144 73.5232 69.4848Z" fill="black"/>
<path d="M68.5507 73.2142H64.8213C64.1348 73.2142 63.5781 73.7708 63.5781 74.4573C63.5781 75.1438 64.1348 75.7005 64.8213 75.7005H68.5507C69.2371 75.7005 69.7938 75.1438 69.7938 74.4573C69.7938 73.7708 69.2371 73.2142 68.5507 73.2142Z" fill="black"/>
<path d="M68.5507 80.6729H64.8213C64.1348 80.6729 63.5781 81.2296 63.5781 81.9161C63.5781 82.6026 64.1348 83.1592 64.8213 83.1592H68.5507C69.2371 83.1592 69.7938 82.6026 69.7938 81.9161C69.7938 81.2296 69.2371 80.6729 68.5507 80.6729Z" fill="black"/>
<path d="M68.5507 85.6455H64.8213C64.1348 85.6455 63.5781 86.2021 63.5781 86.8886C63.5781 87.5751 64.1348 88.1318 64.8213 88.1318H68.5507C69.2371 88.1318 69.7938 87.5751 69.7938 86.8886C69.7938 86.2021 69.2371 85.6455 68.5507 85.6455Z" fill="black"/>
<path d="M99.2099 37.7653L96.4627 36.435C95.6375 36.0449 94.6918 35.996 93.8311 36.2985C92.9698 36.601 92.2628 37.2308 91.8632 38.0511L91.2166 39.3936V34.8561C91.2166 34.5264 91.0856 34.2101 90.8526 33.977C90.6195 33.7439 90.3031 33.6129 89.9735 33.6129H73.8128V31.1267C73.8128 30.797 73.6818 30.4807 73.4487 30.2476C73.2156 30.0145 72.8993 29.8835 72.5696 29.8835H60.1383C59.4518 29.8835 58.8952 30.4402 58.8952 31.1267V33.6129H42.7345C42.048 33.6129 41.4914 34.1696 41.4914 34.8561V37.3423C41.4914 38.0288 42.048 38.5855 42.7345 38.5855C43.421 38.5855 43.9776 38.0288 43.9776 37.3423V36.0992H52.6795V38.5855H47.707C47.0205 38.5855 46.4639 39.1421 46.4639 39.8286V93.2832C46.4639 93.6129 46.5949 93.9292 46.8279 94.1623C47.061 94.3954 47.3774 94.5264 47.707 94.5264H85.001C85.3306 94.5264 85.6469 94.3954 85.88 94.1623C86.1131 93.9292 86.2441 93.6129 86.2441 93.2832V92.0401C86.2441 91.3536 85.6875 90.797 85.001 90.797C84.3145 90.797 83.7578 91.3536 83.7578 92.0401H48.9501V41.0717H83.7578V54.8827L73.4026 76.3896V76.464V76.4645C73.366 76.5605 73.341 76.661 73.3277 76.7625L72.3704 87.3414L72.3709 87.3419C72.3188 87.8614 72.5968 88.3581 73.0669 88.5851C73.2184 88.6572 73.3837 88.6955 73.5519 88.6966H73.6762C73.775 88.7099 73.8754 88.7099 73.9742 88.6966H74.0986C74.2362 88.6467 74.3627 88.5706 74.4715 88.473L82.1417 81.1263C82.2138 81.0513 82.2765 80.9681 82.3282 80.8776L83.7577 77.807V87.0684C83.7577 87.7549 84.3143 88.3116 85.0008 88.3116C85.6873 88.3116 86.2439 87.7549 86.2439 87.0684V72.6481L88.7302 67.477V97.0138H43.9775V42.316C43.9775 41.6295 43.4208 41.0729 42.7343 41.0729C42.0478 41.0729 41.4912 41.6295 41.4912 42.316V98.2569C41.4912 98.5865 41.6222 98.9029 41.8553 99.136C42.0884 99.369 42.4047 99.5 42.7343 99.5H89.9733C90.303 99.5 90.6193 99.369 90.8524 99.136C91.0855 98.9029 91.2165 98.5865 91.2165 98.2569V62.3183L96.9227 50.4586L99.0732 46.0455L100.826 42.3161C101.204 41.497 101.246 40.5624 100.944 39.7122C100.642 38.8621 100.02 38.1639 99.2097 37.7665L99.2099 37.7653ZM94.1008 39.1327C94.2101 38.9013 94.4066 38.7221 94.6475 38.6355C94.8833 38.5417 95.1458 38.5417 95.3811 38.6355L98.1282 39.953C98.3596 40.0623 98.5389 40.2593 98.6255 40.5002C98.7193 40.7355 98.7193 40.998 98.6255 41.2333L97.3824 43.7196L92.8949 41.5562L94.1008 39.1327ZM79.6677 79.9444L79.5683 80.0437L75.0558 84.3204V83.9225L75.5903 78.0177L78.2259 77.6569L79.6677 79.9444ZM91.8254 43.8936L96.3012 46.0441L95.2196 48.2817L90.7443 46.1312L91.8254 43.8936ZM55.1651 36.0991H60.1376C60.4672 36.0991 60.7836 35.9681 61.0167 35.735C61.2497 35.5019 61.3807 35.1856 61.3807 34.8559V32.3697H71.3258V34.8559C71.3258 35.1856 71.4568 35.5019 71.6898 35.735C71.9229 35.9681 72.2393 36.0991 72.5689 36.0991H77.5414V38.5853H55.1651V36.0991ZM80.0277 38.5853V36.0991H88.7296V44.5524L86.2434 49.7735V39.8285C86.2434 39.4988 86.1124 39.1825 85.8793 38.9494C85.6462 38.7163 85.3299 38.5853 85.0002 38.5853H80.0277ZM81.1343 77.533L80.0277 75.6683C79.9755 75.5684 79.9034 75.4796 79.8162 75.4075L79.7169 75.3331L79.5426 75.2088H79.4061L79.2197 75.1466H79.0704L78.7846 75.1461L76.6462 75.4446L89.6619 48.3444L94.1372 50.5077L81.1343 77.533Z" fill="black"/>
<defs>
<filter id="filter0_d_238_3288" x="0" y="0" width="139.954" height="139.955" filterUnits="userSpaceOnUse" color-interpolation-filters="sRGB">
<feFlood flood-opacity="0" result="BackgroundImageFix"/>
<feColorMatrix in="SourceAlpha" type="matrix" values="0 0 0 0 0 0 0 0 0 0 0 0 0 0 0 0 0 0 127 0" result="hardAlpha"/>
<feOffset dx="2" dy="6"/>
<feGaussianBlur stdDeviation="5"/>
<feComposite in2="hardAlpha" operator="out"/>
<feColorMatrix type="matrix" values="0 0 0 0 0 0 0 0 0 0 0 0 0 0 0 0 0 0 0.2 0"/>
<feBlend mode="normal" in2="BackgroundImageFix" result="effect1_dropShadow_238_3288"/>
<feBlend mode="normal" in="SourceGraphic" in2="effect1_dropShadow_238_3288" result="shape"/>
</filter>
</defs>
</svg>
