<svg width="79" height="70" viewBox="0 0 79 70" fill="none" xmlns="http://www.w3.org/2000/svg">
<path d="M27.1562 65.0549H12.3438C8.14687 65.0549 4.9375 62.2359 4.9375 58.5494V45.5384C4.9375 41.852 8.14687 39.0329 12.3438 39.0329H27.1562C31.3531 39.0329 34.5625 41.852 34.5625 45.5384V58.5494C34.5625 62.2359 31.3531 65.0549 27.1562 65.0549Z" fill="black"/>
<path d="M71.5938 13.011H41.9688C40.4875 13.011 39.5 12.1436 39.5 10.8425C39.5 9.54138 40.4875 8.67398 41.9688 8.67398H71.5938C73.075 8.67398 74.0625 9.54138 74.0625 10.8425C74.0625 12.1436 73.075 13.011 71.5938 13.011Z" fill="black"/>
<path d="M59.25 21.685H41.9688C40.4875 21.685 39.5 20.8176 39.5 19.5165C39.5 18.2154 40.4875 17.348 41.9688 17.348H59.25C60.7313 17.348 61.7188 18.2154 61.7188 19.5165C61.7188 20.8176 60.7313 21.685 59.25 21.685Z" fill="black"/>
<path d="M71.5938 47.7069H41.9688C40.4875 47.7069 39.5 46.8395 39.5 45.5384C39.5 44.2373 40.4875 43.3699 41.9688 43.3699H71.5938C73.075 43.3699 74.0625 44.2373 74.0625 45.5384C74.0625 46.8395 73.075 47.7069 71.5938 47.7069Z" fill="black"/>
<path d="M59.25 56.3809H41.9688C40.4875 56.3809 39.5 55.5135 39.5 54.2124C39.5 52.9113 40.4875 52.0439 41.9688 52.0439H59.25C60.7313 52.0439 61.7188 52.9113 61.7188 54.2124C61.7188 55.5135 60.7313 56.3809 59.25 56.3809Z" fill="black"/>
<path d="M27.1562 4.33699H12.3438C8.14687 4.33699 4.9375 7.15604 4.9375 10.8425V23.8535C4.9375 27.5399 8.14687 30.3589 12.3438 30.3589H27.1562C31.3531 30.3589 34.5625 27.5399 34.5625 23.8535V10.8425C34.5625 7.15604 31.3531 4.33699 27.1562 4.33699ZM28.8844 14.5289L21.4781 21.0344C20.9844 21.4681 20.4906 21.685 19.75 21.685C19.0094 21.685 18.5156 21.4681 18.0219 21.0344L13.0844 16.6974C12.0969 15.83 12.0969 14.5289 13.0844 13.6615C14.0719 12.7941 15.5531 12.7941 16.5406 13.6615L19.75 16.4806L25.4281 11.493C26.4156 10.6256 27.8969 10.6256 28.8844 11.493C29.8719 12.3604 29.8719 13.6615 28.8844 14.5289Z" fill="black"/>
</svg>
