<svg width="25" height="26" viewBox="0 0 25 26" fill="none" xmlns="http://www.w3.org/2000/svg">
<path d="M8.96995 23.4833V19.6572C8.96995 18.6805 9.76751 17.8888 10.7513 17.8888H14.3477C14.8202 17.8888 15.2733 18.0751 15.6074 18.4067C15.9415 18.7384 16.1291 19.1882 16.1291 19.6572V23.4833C16.1262 23.8894 16.2866 24.2798 16.5747 24.568C16.8629 24.8561 17.255 25.0182 17.6641 25.0182H20.1177C21.2636 25.0211 22.3636 24.5713 23.175 23.7679C23.9863 22.9646 24.4423 21.8737 24.4423 20.7361V9.83621C24.4423 8.91727 24.032 8.04561 23.322 7.45604L14.9752 0.838256C13.5232 -0.322067 11.4429 -0.284603 10.0343 0.927235L1.87797 7.45604C1.13437 8.02823 0.689932 8.90248 0.667969 9.83621V20.725C0.667969 23.096 2.60418 25.0182 4.99262 25.0182H7.39022C8.23976 25.0182 8.93018 24.3378 8.93634 23.4944L8.96995 23.4833Z" fill="#EFF2F4"/>
</svg>
