<svg width="70" height="70" viewBox="0 0 70 70" fill="none" xmlns="http://www.w3.org/2000/svg">
<path d="M62.101 61.2159H7.55479C5.65206 61.2135 3.82819 60.4566 2.48244 59.1114C1.13718 57.7657 0.380267 55.9418 0.37793 54.0391V19.5893C0.380333 17.6866 1.13729 15.8622 2.48244 14.5166C3.82819 13.1714 5.65206 12.4144 7.55479 12.4121V15.2832C6.41288 15.2832 5.31753 15.7369 4.51017 16.5444C3.70228 17.3518 3.24858 18.4471 3.24858 19.5895V54.0392C3.24858 55.1811 3.70227 56.2765 4.51017 57.0838C5.31759 57.8917 6.41291 58.3454 7.55479 58.3454H62.101C63.2429 58.3454 64.3383 57.8917 65.1456 57.0838C65.9535 56.2764 66.4072 55.1811 66.4072 54.0392V19.5895C66.4072 18.4471 65.9535 17.3517 65.1456 16.5444C64.3382 15.7369 63.2429 15.2832 62.101 15.2832V12.4121C64.0037 12.4145 65.8276 13.1715 67.1734 14.5166C68.5186 15.8624 69.2755 17.6867 69.2779 19.5893V54.0391C69.2755 55.9418 68.5185 57.7657 67.1734 59.1114C65.8276 60.4567 64.0037 61.2136 62.101 61.2159Z" fill="black"/>
<path d="M20.4736 66.9581H49.1813V69.8288H20.4736V66.9581Z" fill="black"/>
<path d="M24.7798 59.7802H27.6504V68.3926H24.7798V59.7802Z" fill="black"/>
<path d="M42.0044 59.7802H44.875V68.3926H42.0044V59.7802Z" fill="black"/>
<path d="M54.9233 49.7332H14.7327C13.5903 49.7332 12.495 49.2795 11.6876 48.4715C10.8802 47.6641 10.4265 46.5688 10.4265 45.4269V18.1538H13.2972V45.4269C13.2972 45.8076 13.4486 46.1724 13.7177 46.442C13.9868 46.7111 14.3521 46.862 14.7327 46.862H54.9233C55.3039 46.862 55.6692 46.7111 55.9383 46.442C56.2074 46.1724 56.3588 45.8076 56.3588 45.4269V5.23518C56.3588 4.85454 56.2074 4.48928 55.9383 4.22015C55.6692 3.95101 55.3039 3.79961 54.9233 3.79961H14.7327C13.9397 3.79961 13.2972 4.44267 13.2972 5.23518V12.412H53.4889V15.2827L11.8613 15.2832C11.0688 15.2832 10.4263 14.6401 10.4263 13.8476V5.23517C10.4263 4.09326 10.88 2.99791 11.6874 2.19006C12.4948 1.38265 13.5901 0.928955 14.7325 0.928955H54.923C56.0654 0.928955 57.1608 1.38265 57.9681 2.19006C58.7755 2.99796 59.2292 4.09329 59.2292 5.23517V45.4269C59.2292 46.5688 58.7755 47.6642 57.9681 48.4715C57.1607 49.2794 56.0654 49.7331 54.923 49.7331L54.9233 49.7332Z" fill="black"/>
<path d="M13.297 55.474H10.4263C9.28393 55.474 8.18858 55.0203 7.38122 54.2129C6.57387 53.4055 6.12012 52.3101 6.12012 51.1678V48.2971H8.99076V51.1678C8.99076 51.5484 9.14216 51.9137 9.4113 52.1828C9.68043 52.4519 10.0457 52.6033 10.4263 52.6033H13.297V55.474Z" fill="black"/>
<path d="M16.1675 52.6036H19.0381V55.4743H16.1675V52.6036Z" fill="black"/>
<path d="M16.1675 6.67078H19.0381V9.54142H16.1675V6.67078Z" fill="black"/>
<path d="M21.9092 6.67078H24.7798V9.54142H21.9092V6.67078Z" fill="black"/>
<path d="M27.6514 6.67078H30.522V9.54142H27.6514V6.67078Z" fill="black"/>
<path d="M26.6362 34.958L19.4594 27.7812C18.899 27.2203 18.899 26.312 19.4594 25.7511L26.6362 18.5742L28.6658 20.6038L22.5035 26.7661L28.6658 32.9284L26.6362 34.958Z" fill="black"/>
<path d="M43.0193 34.958L40.9897 32.9284L47.1521 26.7661L40.9897 20.6038L43.0193 18.5742L50.1962 25.7511C50.7566 26.3119 50.7566 27.2202 50.1962 27.7812L43.0193 34.958Z" fill="black"/>
<path d="M30.6274 33.4126L36.3639 19.0569L39.0299 20.1219L33.2934 34.4776L30.6274 33.4126Z" fill="black"/>
<path d="M17.603 41.1207H52.0528V43.9914H17.603V41.1207Z" fill="black"/>
</svg>
