<svg width="72" height="75" viewBox="0 0 72 75" fill="none" xmlns="http://www.w3.org/2000/svg">
<path d="M6.14266 37.6605C6.14266 36.1418 6.22685 34.5389 6.47997 33.1043C6.64891 32.0918 6.81727 31.0793 7.07039 30.151L1.92376 27.1977C0.995448 26.6915 0.658143 25.5101 1.16439 24.5823L7.32352 13.867C7.82976 12.9387 9.01119 12.6014 9.93893 13.1076L15.0856 16.0609C16.9416 14.2891 18.9666 12.7703 21.1605 11.5047C23.3544 10.2391 25.7167 9.22661 28.1638 8.55142L28.1638 2.64542C28.1638 1.63293 29.0073 0.704612 30.1046 0.704611L42.4234 0.704611C43.5201 0.704611 44.3642 1.54817 44.3642 2.64542L44.3642 8.55142C46.8112 9.22661 49.1735 10.2391 51.3675 11.5047C53.5614 12.7703 55.5864 14.2891 57.4424 16.0609L62.589 13.1076C63.5174 12.6014 64.6982 12.8545 65.2044 13.867L71.3636 24.5823C71.8698 25.5106 71.6167 26.6915 70.6042 27.1977L65.4576 30.151C65.7107 31.1635 65.8796 32.0918 66.048 33.1043C66.3011 34.6231 66.3853 36.1418 66.3853 37.6605C66.3853 39.1793 66.3011 40.7822 66.048 42.2167C65.8791 43.2292 65.7107 44.2417 65.4576 45.17L70.6042 48.1233C71.5325 48.6296 71.8698 49.811 71.3636 50.7387L65.2045 61.4541C64.6982 62.3824 63.5168 62.7197 62.589 62.2134L57.4424 59.2601C55.5864 61.032 53.5614 62.5507 51.3675 63.8164C49.1735 65.082 46.8954 66.0945 44.3642 66.7696L44.3642 72.6757C44.3642 73.7723 43.5207 74.6165 42.4234 74.6165L30.1893 74.6165C29.1768 74.6165 28.2485 73.7729 28.2485 72.6757L28.2485 66.7696C25.8015 66.0945 23.4392 65.082 21.2453 63.8164C19.0513 62.5507 17.0264 61.032 15.1703 59.2601L10.0237 62.2134C9.09538 62.7197 7.91452 62.4666 7.40828 61.5383L1.24915 50.8229C0.742904 49.8946 0.996027 48.7138 2.00852 48.2075L7.15515 45.2542C6.90203 44.3259 6.73309 43.3134 6.56473 42.3009C6.22686 40.7822 6.14266 39.1793 6.14266 37.6605ZM10.2768 33.6948C10.1079 34.9604 10.0237 36.3102 10.0237 37.6605C10.0237 39.0103 10.1079 40.3607 10.2768 41.6263C10.5299 42.9761 10.7831 44.2417 11.2051 45.5073C11.4582 46.3509 11.1209 47.2792 10.3616 47.7854L5.63642 50.5698L9.85532 57.9104L14.5805 55.2102C15.3398 54.7039 16.4365 54.8729 17.0275 55.5475C18.7994 57.4883 20.9085 59.1754 23.2714 60.5258C25.5495 61.7914 27.9118 62.8039 30.5278 63.3943C31.4561 63.4785 32.2155 64.3226 32.2155 65.3351L32.2143 70.7354L40.6516 70.7354L40.6516 65.2509C40.6516 64.4074 41.242 63.5632 42.1703 63.3949C44.7857 62.8044 47.3169 61.8761 49.595 60.5263C51.9573 59.1765 53.9823 57.4889 55.8389 55.5481C56.4294 54.8729 57.4419 54.7045 58.2012 55.2108L62.9264 57.9104L67.1453 50.5698L62.5049 47.8696C61.6613 47.4476 61.2393 46.4351 61.4924 45.5915C61.9145 44.3259 62.1676 43.0603 62.3359 41.7105C62.5049 40.4449 62.6732 39.0951 62.6732 37.7447C62.6732 36.3949 62.5891 35.0445 62.3359 33.7789C62.167 32.4291 61.8297 31.1635 61.4924 29.8979C61.2393 29.0544 61.5766 28.1261 62.3359 27.6198L67.0611 24.8355L62.8422 17.4949L58.117 20.1951C57.3577 20.7013 56.3452 20.5324 55.67 19.8578C53.814 17.917 51.789 16.2299 49.4261 14.8795C47.2322 13.6139 44.7857 12.6014 42.1697 12.011C41.2414 11.9268 40.482 11.0826 40.482 10.0702L40.482 4.58563L32.1296 4.58563L32.1296 10.0702C32.1296 10.9137 31.5391 11.7578 30.6108 11.9262C27.9954 12.5166 25.4642 13.4449 23.1861 14.7947C20.908 16.1445 18.7988 17.8322 16.9422 19.773C16.3518 20.4482 15.3393 20.6166 14.5799 20.1951L9.77059 17.4107L5.55169 24.7513L10.1927 27.4514C11.0362 27.8735 11.4583 28.8012 11.2051 29.7295C10.7831 30.9952 10.53 32.345 10.2768 33.6948L10.2768 33.6948ZM27.236 37.6605C27.236 35.1293 28.2485 32.8512 29.9362 31.2483C31.6239 29.5606 33.8172 28.5481 36.3485 28.5481C38.8797 28.5481 41.1578 29.5606 42.8455 31.2483C44.5331 32.936 45.4609 35.1293 45.4609 37.6605C45.4609 40.1918 44.4484 42.4699 42.8455 44.1575C41.1578 45.7605 38.8797 46.773 36.3485 46.773C33.8172 46.773 31.5391 45.7605 29.9362 44.1575C28.2485 42.4699 27.236 40.1918 27.236 37.6605ZM32.6358 33.9479C31.7075 34.8762 31.1171 36.226 31.1171 37.6605C31.1171 39.0951 31.7075 40.4449 32.6358 41.3732C33.5641 42.3015 34.9139 42.8919 36.3485 42.8919C37.783 42.8919 39.1328 42.3015 40.0611 41.3732C40.9894 40.4449 41.5799 39.0951 41.5799 37.6605C41.5799 36.226 40.9894 34.8762 40.0611 33.9479C39.1328 33.0196 37.783 32.4291 36.3485 32.4291C34.9139 32.4291 33.5641 33.0201 32.6358 33.9479ZM16.8583 37.6605C16.8583 32.345 19.0522 27.4514 22.5112 23.9077C25.9707 20.364 30.949 18.2543 36.3487 18.2543C41.7485 18.2543 46.5578 20.4482 50.1016 23.9071C53.6453 27.4514 55.755 32.345 55.755 37.6605C55.755 43.0603 53.5611 47.8696 50.1021 51.4133C46.5578 54.9571 41.7485 57.0668 36.3487 57.0668C31.0332 57.0668 26.1397 54.8729 22.5959 51.4139C19.0522 47.9544 16.8583 43.0603 16.8583 37.6605ZM25.2955 26.6921C22.5112 29.4764 20.7393 33.3574 20.7393 37.6605C20.7393 41.9636 22.5112 45.8446 25.2955 48.7138C28.0799 51.4981 31.9609 53.27 36.264 53.27C40.5671 53.27 44.4481 51.5823 47.3172 48.7138C50.1016 45.9294 51.8734 41.9636 51.8734 37.6605C51.8734 33.3574 50.1016 29.4764 47.3172 26.6921C44.5329 23.9077 40.5671 22.1359 36.264 22.1359C32.0457 22.0511 28.1646 23.823 25.2955 26.6921Z" fill="black"/>
</svg>
