<svg width="70" height="70" viewBox="0 0 70 70" fill="none" xmlns="http://www.w3.org/2000/svg">
<path d="M69.1051 1.08171C68.8986 0.875794 68.5935 0.804848 68.3172 0.898737L9.49847 20.9711C9.24881 21.0565 9.0605 21.2645 9.00075 21.5216C8.94101 21.7788 9.01836 22.0482 9.20454 22.2349L22.3948 35.4219L22.2161 47.1948H22.2156C22.2124 47.4012 22.2929 47.6008 22.4391 47.7469C22.5805 47.9006 22.7832 47.9827 22.9918 47.971L34.7636 47.7928L47.9517 60.9794C48.0947 61.1229 48.2894 61.2035 48.4921 61.2035C48.5502 61.204 48.6084 61.1971 48.6649 61.1837C48.922 61.124 49.1301 60.9357 49.2154 60.686L69.2878 1.87004C69.3817 1.59371 69.3108 1.28857 69.1049 1.08213L69.1051 1.08171ZM34.6852 46.2644L24.8552 46.4137L61.9026 9.36628L34.6852 46.2644ZM23.9226 35.5014L60.8198 8.28662L23.7737 45.3327L23.9226 35.5014ZM11.1564 22.022L64.1274 3.94343L23.2384 34.1053L11.1564 22.022ZM48.1657 59.0312L36.0824 46.9479L66.2442 6.0602L48.1657 59.0312ZM52.2951 42.1872L50.4137 47.6962C50.308 48.0062 50.0173 48.2142 49.6903 48.2142C49.6065 48.2137 49.5228 48.1998 49.4433 48.1732C49.2513 48.1075 49.0933 47.9683 49.0037 47.7859C48.9146 47.604 48.9013 47.3938 48.9669 47.2017L50.8474 41.6954C50.9098 41.4996 51.0485 41.3369 51.2326 41.2447C51.4161 41.1524 51.6289 41.1374 51.8236 41.2041C52.0183 41.2708 52.1779 41.4127 52.2664 41.5983C52.355 41.784 52.3651 41.9968 52.2947 42.1899L52.2951 42.1872ZM56.9677 28.502L53.5045 38.6521C53.3989 38.962 53.1077 39.1706 52.7801 39.1706C52.6958 39.1701 52.6126 39.1562 52.5331 39.129C52.3411 39.0634 52.1832 38.9241 52.0935 38.7422C52.0044 38.5598 51.9911 38.3496 52.0567 38.1581L55.5204 28.0091V28.0086C55.5839 27.8144 55.7226 27.6538 55.9056 27.5626C56.0886 27.4714 56.2998 27.457 56.4935 27.5231C56.6871 27.5893 56.8461 27.7296 56.9352 27.9136C57.0243 28.0971 57.036 28.3094 56.9677 28.502L56.9677 28.502ZM19.6867 50.5013C19.9849 50.8 19.9849 51.2844 19.6867 51.5826L9.97993 61.29C9.68172 61.5887 9.19734 61.5892 8.8986 61.2905C8.59987 60.9918 8.59933 60.5074 8.89807 60.2086L18.6054 50.5013C18.9036 50.2031 19.388 50.2031 19.6867 50.5013H19.6867ZM6.94613 63.2419C7.24487 63.5401 7.24487 64.0245 6.94613 64.3232L3.39229 67.8776C3.09355 68.1763 2.60917 68.1763 2.31043 67.8776C2.0117 67.5789 2.0117 67.0945 2.31043 66.7957L5.86427 63.2419C6.00778 63.0979 6.20249 63.0173 6.40519 63.0173C6.60844 63.0173 6.80316 63.0979 6.94612 63.2419L6.94613 63.2419ZM18.3552 40.0408L8.64732 49.747C8.34699 50.0372 7.87008 50.033 7.57507 49.738C7.28006 49.443 7.2758 48.9661 7.566 48.6657L17.2739 38.9584C17.5726 38.6602 18.057 38.6602 18.3557 38.9589C18.6539 39.2577 18.6539 39.742 18.3552 40.0408V40.0408ZM5.61407 52.7803L2.06023 56.3341C1.76043 56.6238 1.28298 56.6195 0.987974 56.3245C0.692966 56.0295 0.689238 55.5526 0.978906 55.2528L4.53234 51.699C4.83054 51.4002 5.31492 51.3997 5.61366 51.6984C5.91293 51.9972 5.91293 52.4816 5.61419 52.7803H5.61407ZM31.2337 51.8334C31.5319 52.1321 31.5319 52.616 31.2337 52.9147L21.5227 62.6226C21.3803 62.7704 21.1845 62.8547 20.9791 62.8563C20.7743 62.8579 20.5769 62.7773 20.4318 62.6322C20.2867 62.4871 20.2061 62.2903 20.2077 62.0849C20.2093 61.8795 20.2936 61.6837 20.4414 61.5413L30.1476 51.8334C30.2911 51.6899 30.4858 51.6088 30.6891 51.6088C30.8923 51.6088 31.087 51.6899 31.2305 51.8334H31.2337ZM18.4889 64.5745C18.7871 64.8733 18.7871 65.3571 18.4889 65.6559L14.9355 69.2097C14.6325 69.4796 14.1716 69.4658 13.8851 69.1782C13.5986 68.8907 13.5869 68.4293 13.8579 68.1273L17.4113 64.5739V64.5744C17.7095 64.2784 18.1907 64.2784 18.4889 64.5744L18.4889 64.5745Z" fill="black" stroke="black"/>
</svg>
