<svg width="74" height="75" viewBox="0 0 74 75" fill="none" xmlns="http://www.w3.org/2000/svg">
<path d="M8.73921 10.9401C11.496 10.9401 13.9461 8.64263 13.9461 5.88588C13.7934 2.97639 11.496 0.678955 8.73921 0.678955C5.82917 0.678955 3.53174 2.97639 3.53174 5.73314C3.53174 8.64318 5.82917 10.9401 8.73921 10.9401Z" fill="black"/>
<path d="M70.0005 39.7332V17.2197C69.0817 17.373 67.8563 17.373 66.9377 17.2197V36.6702H58.0547C58.0547 37.2828 58.0547 38.5081 57.9014 39.7329L70.0005 39.7332Z" fill="black"/>
<path d="M68.4691 4.20178C65.5591 4.20178 63.2622 6.49921 63.2622 9.40871C63.2622 12.1655 65.5596 14.4629 68.4691 14.4629C71.3792 14.4629 73.5233 12.1655 73.5233 9.40871C73.5228 6.49921 71.2259 4.20178 68.4691 4.20178Z" fill="black"/>
<path d="M35.5412 7.26464V16.4537C36.46 16.3004 37.6854 16.3004 38.604 16.4537V4.20117L16.7031 4.20171C16.8564 5.12046 16.8564 6.34585 16.7031 7.26449L35.5412 7.26464Z" fill="black"/>
<path d="M37.0727 55.3548C45.9557 55.3548 53.6132 48.7692 54.8384 39.7332C56.2165 29.3188 48.0995 19.517 37.0727 19.517C28.0369 19.517 20.5321 26.2558 19.3069 34.9854C17.9288 45.3993 26.0458 55.3548 37.0727 55.3548ZM37.0727 26.562C39.8294 26.562 41.9736 28.8594 41.9736 31.4629C41.9736 34.2196 39.8294 36.3638 37.0727 36.3638C34.3159 36.3638 32.1718 34.0664 32.1718 31.4629C32.1718 28.7061 34.3159 26.562 37.0727 26.562ZM27.2709 44.1746C27.2709 40.8051 30.0276 38.0483 33.3971 38.0483H40.7487C44.1182 38.0483 46.875 40.8051 46.875 44.1746V48.3094H27.2714L27.2709 44.1746Z" fill="black"/>
<path d="M65.4057 63.9313C62.6489 63.9313 60.1987 66.2287 60.1987 68.9855C60.1987 71.8955 62.4962 74.1924 65.4057 74.1924C68.1624 74.1924 70.4598 71.895 70.4598 68.9855C70.6131 66.2282 68.3157 63.9313 65.4057 63.9313Z" fill="black"/>
<path d="M38.6043 67.4538V58.2648C37.6855 58.4181 36.4601 58.4181 35.5415 58.2648V70.5173H57.4424C57.2891 69.5985 57.2891 68.3731 57.4424 67.4545L38.6043 67.4538Z" fill="black"/>
<path d="M5.67625 58.8772C2.76621 58.8772 0.62207 61.1746 0.62207 63.9314C0.62207 66.6881 2.9195 68.9856 5.67625 68.9856C8.43301 68.9856 10.7304 66.6881 10.7304 63.9314C10.8837 61.1746 8.5863 58.8772 5.67625 58.8772Z" fill="black"/>
<path d="M4.14453 35.1385V55.9673C5.06328 55.814 6.28867 55.814 7.20732 55.9673L7.20785 38.2016H16.0909C16.0909 37.5889 16.0909 36.3636 16.2442 35.1388L4.14453 35.1385Z" fill="black"/>
</svg>
