<svg width="50" height="46" viewBox="0 0 50 46" fill="none" xmlns="http://www.w3.org/2000/svg">
<path d="M45.9517 8.8955L30.5892 1.57675C27.2076 -0.443171 22.9986 -0.479011 19.583 1.483L4.0476 8.8955C3.9893 8.9247 3.92885 8.95595 3.8726 8.98925C0.18588 11.0973 -1.094 15.7948 1.014 19.4815C1.72856 20.7313 2.77963 21.7554 4.0476 22.4372L8.33305 24.4789V34.6872C8.33559 39.2519 11.3058 43.2848 15.6643 44.6414C18.6974 45.5188 21.8424 45.9484 24.9997 45.9164C28.1566 45.9517 31.3016 45.5258 34.3352 44.6518C38.6937 43.2953 41.6639 39.2624 41.6664 34.6976V24.4747L45.8331 22.483V39.6663C45.8331 40.8169 46.7659 41.7496 47.9164 41.7496C49.067 41.7496 49.9997 40.8169 49.9997 39.6663V14.6663C50.0136 12.2199 48.082 9.95995 45.9517 8.8955ZM37.4996 34.6976C37.5007 37.428 35.7292 39.8432 33.1246 40.6622C30.4834 41.4169 27.7464 41.7832 24.9996 41.7497C22.2529 41.7832 19.5159 41.4169 16.8747 40.6622C14.2701 39.8431 12.4986 37.428 12.4997 34.6976V26.4643L19.4101 29.756C21.1152 30.7685 23.0625 31.3006 25.0455 31.2956C26.933 31.309 28.7888 30.8093 30.4143 29.8498L37.4996 26.4642V34.6976ZM44.1663 18.6768L28.4538 26.1767C26.263 27.4524 23.5475 27.4163 21.3913 26.083L6.0184 18.7705C4.30483 17.8465 3.66479 15.7083 4.58881 13.9948C4.90131 13.4153 5.36986 12.935 5.94135 12.608L21.5559 5.1497C23.7474 3.87685 26.4615 3.91288 28.6184 5.24345L43.9809 12.5622C45.1107 13.1895 45.8175 14.3742 45.833 15.6664C45.835 16.8904 45.2047 18.0287 44.1663 18.6768Z" fill="#008080"/>
</svg>
