<svg width="24" height="24" viewBox="0 0 24 24" fill="none" xmlns="http://www.w3.org/2000/svg">
<path d="M12.0001 16.4446C14.4547 16.4446 16.4446 14.4547 16.4446 12.0001C16.4446 9.54551 14.4547 7.55566 12.0001 7.55566C9.54551 7.55566 7.55566 9.54551 7.55566 12.0001C7.55566 14.4547 9.54551 16.4446 12.0001 16.4446Z" stroke="white" stroke-width="2.3" stroke-linecap="round" stroke-linejoin="round"/>
<path d="M2 16.4444V7.55556C2 4.48731 4.48731 2 7.55556 2H16.4444C19.5127 2 22 4.48731 22 7.55556V16.4444C22 19.5127 19.5127 22 16.4444 22H7.55556C4.48731 22 2 19.5127 2 16.4444Z" stroke="white" stroke-width="2.5"/>
<path d="M18.1108 5.90071L18.1226 5.8877" stroke="white" stroke-width="2.5" stroke-linecap="round" stroke-linejoin="round"/>
</svg>
