<svg width="36" height="35" viewBox="0 0 36 35" fill="none" xmlns="http://www.w3.org/2000/svg">
<rect width="35.8687" height="34.9054" rx="7.50769" fill="white"/>
<path fill-rule="evenodd" clip-rule="evenodd" d="M13.1725 9.81675C12.6609 9.31241 12.6609 8.49472 13.1725 7.99038L16.9802 4.23684C17.4918 3.7325 18.3212 3.7325 18.8329 4.23684L22.6405 7.99038C23.1521 8.49472 23.1521 9.31241 22.6405 9.81675L18.8329 13.5703C18.3212 14.0746 17.4918 14.0746 16.9802 13.5703L13.1725 9.81675ZM17.2083 17.9205C16.9525 17.6683 16.9525 17.2595 17.2083 17.0073L17.4612 16.758C17.717 16.5059 18.1317 16.5059 18.3876 16.758L18.6404 17.0073C18.8962 17.2595 18.8962 17.6683 18.6404 17.9205L18.3876 18.1698C18.1317 18.422 17.717 18.422 17.4612 18.1698L17.2083 17.9205ZM22.1585 16.5701C21.6469 17.0744 21.6469 17.8921 22.1585 18.3964L25.9661 22.15C26.4777 22.6543 27.3072 22.6543 27.8188 22.15L31.6264 18.3964C32.138 17.8921 32.138 17.0744 31.6264 16.5701L27.8188 12.8165C27.3072 12.3122 26.4777 12.3122 25.9661 12.8165L22.1585 16.5701ZM4.24222 18.3868C3.73062 17.8825 3.73062 17.0648 4.24222 16.5604L8.04985 12.8069C8.56145 12.3025 9.39093 12.3025 9.90254 12.8069L13.7102 16.5604C14.2218 17.0648 14.2218 17.8825 13.7102 18.3868L9.90254 22.1403C9.39093 22.6447 8.56145 22.6447 8.04985 22.1403L4.24222 18.3868ZM13.1725 25.0887C12.6609 25.593 12.6609 26.4107 13.1725 26.9151L16.9802 30.6686C17.4918 31.1729 18.3212 31.1729 18.8329 30.6686L22.6405 26.9151C23.1521 26.4107 23.1521 25.593 22.6405 25.0887L18.8329 21.3352C18.3212 20.8308 17.4918 20.8308 16.9802 21.3352L13.1725 25.0887Z" fill="#2196F3"/>
</svg>
