<svg width="77" height="77" viewBox="0 0 77 77" fill="none" xmlns="http://www.w3.org/2000/svg">
<path d="M38.5 77C57.5863 77 74.0395 62.8504 76.6721 43.4359C79.6331 21.0598 62.1927 0 38.5 0C19.0855 0 2.9605 14.4789 0.327943 33.235C-2.63309 55.6099 14.8073 77 38.5 77ZM38.5 15.1367C44.4232 15.1367 49.0302 20.0729 49.0302 25.6667C49.0302 31.5897 44.4232 36.1966 38.5 36.1966C32.5767 36.1966 27.9698 31.2604 27.9698 25.6667C27.9698 19.7436 32.5767 15.1367 38.5 15.1367ZM17.4396 52.9786C17.4396 45.739 23.3628 39.8159 30.6026 39.8159H46.3985C53.6384 39.8159 59.5616 45.739 59.5616 52.9786V61.8627H17.4407L17.4396 52.9786Z" fill="black"/>
</svg>
