<svg width="26" height="23" viewBox="0 0 26 23" fill="none" xmlns="http://www.w3.org/2000/svg">
<path d="M20.7656 14.3401C23.143 14.3401 25.0686 16.2333 25.0686 18.569C25.0686 20.9034 23.143 22.7965 20.7656 22.7965C18.3896 22.7965 16.4626 20.9034 16.4626 18.569C16.4626 16.2333 18.3896 14.3401 20.7656 14.3401ZM10.1574 16.7656C11.1988 16.7656 12.0441 17.596 12.0441 18.6191C12.0441 19.6408 11.1988 20.4727 10.1574 20.4727H1.92961C0.888275 20.4727 0.0429688 19.6408 0.0429688 18.6191C0.0429688 17.596 0.888275 16.7656 1.92961 16.7656H10.1574ZM4.34596 0.551514C6.72339 0.551514 8.64896 2.44468 8.64896 4.77905C8.64896 7.11477 6.72339 9.00794 4.34596 9.00794C1.96993 9.00794 0.0429688 7.11477 0.0429688 4.77905C0.0429688 2.44468 1.96993 0.551514 4.34596 0.551514ZM23.1834 2.92685C24.2233 2.92685 25.0686 3.75734 25.0686 4.77905C25.0686 5.80212 24.2233 6.6326 23.1834 6.6326H14.9555C13.9142 6.6326 13.0689 5.80212 13.0689 4.77905C13.0689 3.75734 13.9142 2.92685 14.9555 2.92685H23.1834Z" fill="#EFF2F4"/>
</svg>
