<svg width="26" height="26" viewBox="0 0 26 26" fill="none" xmlns="http://www.w3.org/2000/svg">
<path d="M18.3934 0.0670095C20.1934 -0.0454895 21.9684 0.579505 23.3059 1.80449C24.5309 3.14198 25.1559 4.91697 25.0559 6.72945V18.4043C25.1684 20.2168 24.5309 21.9918 23.3184 23.3293C21.9809 24.5543 20.1934 25.1793 18.3934 25.0668H6.71839C4.9059 25.1793 3.1309 24.5543 1.7934 23.3293C0.568401 21.9918 -0.0565987 20.2168 0.0559012 18.4043V6.72945C-0.0565987 4.91697 0.568401 3.14198 1.7934 1.80449C3.1309 0.579505 4.9059 -0.0454895 6.71839 0.0670095H18.3934ZM18.0684 5.77946C17.2934 5.00447 16.0434 5.00447 15.2684 5.77946L14.4309 6.62945C14.3059 6.75445 14.3059 6.96695 14.4309 7.09195C14.4309 7.09195 14.4554 7.11633 14.4991 7.15974L14.8066 7.46553C14.9844 7.64248 15.2064 7.86347 15.4293 8.08569L16.1852 8.84121C16.3429 8.99965 16.4476 9.10582 16.4559 9.11693C16.5934 9.26693 16.6809 9.46693 16.6809 9.69192C16.6809 10.1419 16.3184 10.5169 15.8559 10.5169C15.6434 10.5169 15.4434 10.4294 15.3059 10.2919L13.2184 8.21694C13.1184 8.11694 12.9434 8.11694 12.8434 8.21694L6.88089 14.1794C6.46839 14.5919 6.2309 15.1419 6.2184 15.7294L6.1434 18.6918C6.1434 18.8543 6.1934 19.0043 6.3059 19.1168C6.4184 19.2293 6.56839 19.2918 6.73089 19.2918H9.66839C10.2684 19.2918 10.8434 19.0543 11.2809 18.6293L19.6934 10.1919C20.4559 9.41693 20.4559 8.16694 19.6934 7.40444L18.0684 5.77946Z" fill="white"/>
</svg>
