<svg width="19" height="18" viewBox="0 0 19 18" fill="none" xmlns="http://www.w3.org/2000/svg">
<path fill-rule="evenodd" clip-rule="evenodd" d="M8.53066 15.2176C12.7329 15.2176 16.1395 11.811 16.1395 7.60879C16.1395 3.40657 12.7329 0 8.53066 0C4.32845 0 0.921875 3.40657 0.921875 7.60879C0.921875 11.811 4.32845 15.2176 8.53066 15.2176ZM8.53066 14.2031C12.1726 14.2031 15.1249 11.2507 15.1249 7.60879C15.1249 3.96687 12.1726 1.01451 8.53066 1.01451C4.88874 1.01451 1.93638 3.96687 1.93638 7.60879C1.93638 11.2507 4.88874 14.2031 8.53066 14.2031ZM17.8299 17.6254L14.6951 14.4906L14.4691 14.2646C14.271 14.0665 14.271 13.7453 14.4691 13.5472C14.6672 13.3492 14.9884 13.3492 15.1865 13.5472L15.4125 13.7733L18.5473 16.9081L18.7733 17.1341C18.9714 17.3322 18.9714 17.6533 18.7733 17.8514C18.5752 18.0495 18.254 18.0495 18.0559 17.8514L17.8299 17.6254Z" fill="#50B8E4"/>
<mask id="mask0_417_2814" style="mask-type:luminance" maskUnits="userSpaceOnUse" x="0" y="0" width="19" height="18">
<path fill-rule="evenodd" clip-rule="evenodd" d="M8.53066 15.2176C12.7329 15.2176 16.1395 11.811 16.1395 7.60879C16.1395 3.40657 12.7329 0 8.53066 0C4.32845 0 0.921875 3.40657 0.921875 7.60879C0.921875 11.811 4.32845 15.2176 8.53066 15.2176ZM8.53066 14.2031C12.1726 14.2031 15.1249 11.2507 15.1249 7.60879C15.1249 3.96687 12.1726 1.01451 8.53066 1.01451C4.88874 1.01451 1.93638 3.96687 1.93638 7.60879C1.93638 11.2507 4.88874 14.2031 8.53066 14.2031ZM17.8299 17.6254L14.6951 14.4906L14.4691 14.2646C14.271 14.0665 14.271 13.7453 14.4691 13.5472C14.6672 13.3492 14.9884 13.3492 15.1865 13.5472L15.4125 13.7733L18.5473 16.9081L18.7733 17.1341C18.9714 17.3322 18.9714 17.6533 18.7733 17.8514C18.5752 18.0495 18.254 18.0495 18.0559 17.8514L17.8299 17.6254Z" fill="white"/>
</mask>
<g mask="url(#mask0_417_2814)">
</g>
</svg>
